<svg id="svg" version="1.1" xmlns="http://www.w3.org/2000/svg" xmlns:xlink="http://www.w3.org/1999/xlink" width="400" height="400" viewBox="0, 0, 400,400"><g id="svgg"><path id="path0" d="M172.800 108.400 L 172.800 114.400 183.200 114.400 L 193.600 114.400 193.600 144.400 L 193.600 174.400 200.600 174.400 L 207.600 174.400 207.600 144.400 L 207.600 114.400 218.000 114.400 L 228.400 114.400 228.400 108.400 L 228.400 102.400 200.600 102.400 L 172.800 102.400 172.800 108.400 M197.354 295.898 C 196.301 296.611,196.310 297.986,197.370 298.388 C 198.918 298.977,199.664 298.513,199.522 297.049 C 199.398 295.778,198.351 295.222,197.354 295.898 M204.845 296.477 C 204.600 296.869,204.400 297.822,204.400 298.595 C 204.400 299.577,204.219 300.000,203.800 300.000 C 203.427 300.000,203.200 300.378,203.200 301.000 C 203.200 301.622,203.427 302.000,203.800 302.000 C 204.280 302.000,204.400 302.602,204.400 305.016 C 204.400 307.950,205.257 310.694,206.393 311.396 C 208.269 312.555,210.353 310.753,208.861 309.261 C 208.424 308.824,207.962 308.572,207.833 308.700 C 207.705 308.828,207.600 307.373,207.600 305.467 C 207.600 302.036,207.610 302.000,208.600 302.000 C 209.400 302.000,209.600 301.800,209.600 301.000 C 209.600 300.206,209.399 300.000,208.621 300.000 C 207.722 300.000,207.632 299.828,207.521 297.900 C 207.389 295.613,205.884 294.813,204.845 296.477 M60.000 304.100 L 60.000 312.000 61.392 312.000 C 63.216 312.000,63.254 311.808,63.114 303.242 L 63.000 296.284 61.500 296.242 L 60.000 296.200 60.000 304.100 M90.800 297.500 L 90.800 298.800 93.000 298.800 L 95.200 298.800 95.247 305.100 C 95.273 308.565,95.273 311.535,95.247 311.700 C 95.221 311.865,95.920 312.000,96.800 312.000 L 98.400 312.000 98.400 305.400 L 98.400 298.800 100.625 298.800 L 102.851 298.800 102.725 297.575 L 102.600 296.350 96.700 296.275 L 90.800 296.200 90.800 297.500 M151.900 296.327 L 150.800 296.453 150.800 303.594 C 150.800 311.540,150.879 312.000,152.243 312.000 C 153.181 312.000,153.200 311.929,153.200 308.424 C 153.200 306.457,153.380 304.736,153.600 304.600 C 153.820 304.464,154.001 304.048,154.003 303.676 C 154.006 302.626,156.330 301.448,157.131 302.091 C 159.155 303.714,159.200 303.844,159.200 308.000 L 159.200 312.000 160.400 312.000 L 161.600 312.000 161.600 308.450 C 161.600 306.498,161.707 304.367,161.837 303.715 C 161.996 302.921,161.870 302.327,161.456 301.913 C 161.116 301.573,160.934 301.199,161.052 301.082 C 162.007 300.126,156.500 299.302,154.000 300.026 C 153.540 300.159,153.353 299.732,153.200 298.200 C 153.009 296.294,152.948 296.206,151.900 296.327 M189.780 297.291 C 189.646 297.901,189.376 298.400,189.181 298.400 C 188.985 298.400,188.929 298.670,189.055 299.000 C 189.182 299.330,189.076 299.600,188.819 299.600 C 188.563 299.600,188.464 299.780,188.600 300.000 C 188.736 300.220,188.637 300.400,188.381 300.400 C 188.124 300.400,188.018 300.670,188.145 301.000 C 188.271 301.330,188.201 301.600,187.987 301.600 C 187.774 301.600,187.600 301.768,187.600 301.974 C 187.600 304.849,186.680 304.479,185.239 301.025 C 183.353 296.501,183.275 296.494,181.645 300.702 C 180.900 302.626,180.157 304.350,179.993 304.533 C 179.728 304.828,178.705 302.438,177.152 297.900 C 176.665 296.476,176.551 296.400,174.906 296.400 C 173.308 296.400,173.205 296.461,173.592 297.184 C 173.822 297.615,174.753 300.000,175.660 302.484 C 176.567 304.968,177.454 307.057,177.632 307.126 C 177.810 307.195,177.856 307.510,177.735 307.826 C 177.614 308.142,177.724 308.400,177.981 308.400 C 178.237 308.400,178.336 308.580,178.200 308.800 C 178.064 309.020,178.138 309.200,178.364 309.200 C 178.590 309.200,178.671 309.470,178.545 309.800 C 178.418 310.130,178.497 310.400,178.720 310.400 C 178.943 310.400,179.050 310.805,178.958 311.300 C 178.866 311.795,178.901 311.967,179.034 311.683 C 179.233 311.261,179.393 311.261,179.908 311.683 C 180.455 312.132,180.508 312.081,180.307 311.299 C 180.163 310.743,180.229 310.495,180.480 310.650 C 180.734 310.806,180.785 310.582,180.616 310.050 C 180.450 309.527,180.519 309.200,180.797 309.200 C 181.044 309.200,181.136 309.020,181.000 308.800 C 180.864 308.580,180.921 308.400,181.128 308.400 C 181.334 308.400,181.912 307.305,182.412 305.967 L 183.322 303.534 184.625 306.864 C 185.341 308.695,185.843 310.330,185.740 310.497 C 185.637 310.664,185.716 310.800,185.915 310.800 C 186.115 310.800,186.473 311.205,186.712 311.700 C 187.079 312.461,187.150 312.486,187.173 311.866 C 187.217 310.681,190.122 303.628,190.476 303.847 C 190.772 304.030,190.839 303.815,190.960 302.300 C 190.982 302.025,191.270 301.581,191.600 301.313 C 192.133 300.880,192.133 300.823,191.600 300.807 C 191.246 300.795,191.164 300.667,191.400 300.494 C 191.833 300.176,193.200 297.392,193.200 296.828 C 193.200 295.769,190.020 296.199,189.780 297.291 M214.300 296.312 L 213.200 296.453 213.200 303.594 C 213.200 311.732,213.252 312.000,214.843 312.000 L 216.000 312.000 216.000 308.089 C 216.000 304.054,216.530 302.400,217.823 302.400 C 218.140 302.400,218.400 302.220,218.400 302.000 C 218.400 301.308,219.164 301.562,220.403 302.666 C 221.586 303.720,221.600 303.780,221.600 307.866 L 221.600 312.000 223.000 312.000 L 224.400 312.000 224.400 307.380 C 224.400 302.152,223.967 300.815,222.014 300.006 C 220.516 299.386,216.854 299.670,216.363 300.445 C 216.138 300.802,216.010 300.187,216.006 298.724 C 215.999 296.230,215.911 296.106,214.300 296.312 M235.715 296.677 C 235.165 298.113,235.780 298.599,238.304 298.719 L 240.800 298.838 240.800 305.443 L 240.800 312.048 242.300 311.924 L 243.800 311.800 243.800 305.300 L 243.800 298.799 245.925 298.800 L 248.051 298.800 247.925 297.583 L 247.800 296.365 241.849 296.283 C 237.547 296.223,235.847 296.332,235.715 296.677 M71.289 300.223 C 70.791 300.572,70.400 300.660,70.400 300.423 C 70.400 300.190,69.905 300.000,69.300 299.999 L 68.200 299.999 68.320 305.999 L 68.440 312.000 69.420 312.000 C 70.391 312.000,70.400 311.966,70.400 308.200 C 70.400 305.827,70.557 304.400,70.818 304.400 C 71.047 304.400,71.182 304.087,71.118 303.704 C 71.048 303.293,71.369 302.844,71.900 302.609 C 72.395 302.390,72.800 302.073,72.800 301.905 C 72.800 301.737,73.070 301.600,73.400 301.600 C 73.730 301.600,74.000 301.780,74.000 302.000 C 74.000 302.220,74.205 302.400,74.456 302.400 C 75.571 302.400,75.975 303.851,75.987 307.900 L 76.000 312.000 77.400 312.000 L 78.800 312.000 78.800 307.374 C 78.800 302.590,78.532 301.507,77.053 300.309 C 75.952 299.417,72.513 299.365,71.289 300.223 M106.145 300.277 C 102.539 302.075,102.251 306.700,105.495 310.724 C 106.232 311.639,112.000 312.345,112.000 311.520 C 112.000 311.358,112.293 311.338,112.651 311.475 C 113.066 311.634,113.587 311.376,114.086 310.762 C 114.517 310.233,114.735 310.070,114.571 310.400 C 114.395 310.753,114.422 310.863,114.636 310.667 C 114.836 310.483,115.008 310.213,115.017 310.067 C 115.026 309.920,115.341 309.224,115.717 308.520 C 118.713 302.906,112.171 297.272,106.145 300.277 M138.091 300.237 C 134.843 301.657,134.063 307.448,136.778 309.983 C 137.276 310.449,137.286 310.504,136.819 310.207 C 136.413 309.949,136.462 310.121,136.962 310.707 C 137.743 311.622,138.243 311.916,137.800 311.200 C 137.664 310.980,137.743 310.800,137.976 310.800 C 138.209 310.800,138.400 310.991,138.400 311.224 C 138.400 311.457,138.580 311.536,138.800 311.400 C 139.020 311.264,139.200 311.316,139.200 311.515 C 139.200 312.094,144.470 311.732,144.853 311.127 C 145.037 310.837,145.191 310.745,145.194 310.922 C 145.197 311.100,145.629 310.745,146.154 310.135 C 147.034 309.113,147.183 307.716,146.358 308.226 C 146.161 308.348,146.000 308.205,146.000 307.909 C 146.000 307.016,144.428 307.185,143.798 308.146 C 143.103 309.208,140.205 309.369,139.580 308.381 C 139.378 308.061,139.208 307.980,139.204 308.200 C 139.185 309.067,138.000 306.247,138.000 305.336 C 138.000 304.251,139.627 302.400,140.582 302.400 C 140.922 302.400,141.200 302.220,141.200 302.000 C 141.200 301.279,142.021 301.579,143.287 302.762 C 144.483 303.880,147.200 303.606,147.200 302.367 C 147.200 300.214,141.301 298.834,138.091 300.237 M252.000 299.890 C 251.061 300.246,248.831 302.298,249.096 302.562 C 249.226 302.693,249.129 302.800,248.879 302.800 C 248.629 302.800,248.529 303.070,248.655 303.400 C 248.782 303.730,248.686 304.000,248.443 304.000 C 248.193 304.000,248.000 304.697,248.000 305.600 C 248.000 306.480,248.191 307.200,248.424 307.200 C 248.657 307.200,248.744 307.366,248.619 307.570 C 248.493 307.773,248.924 308.524,249.576 309.238 C 250.229 309.953,250.656 310.710,250.526 310.920 C 250.395 311.131,250.537 311.221,250.841 311.120 C 251.144 311.019,251.601 311.144,251.856 311.398 C 252.634 312.177,257.956 311.808,258.622 310.928 C 258.926 310.528,259.180 310.357,259.187 310.549 C 259.194 310.741,259.468 310.676,259.796 310.404 C 260.123 310.132,260.292 309.748,260.170 309.552 C 260.049 309.355,260.230 309.087,260.572 308.955 C 260.915 308.824,261.096 308.555,260.974 308.358 C 260.852 308.161,260.963 308.000,261.219 308.000 C 261.476 308.000,261.582 307.730,261.455 307.400 C 261.329 307.070,261.399 306.800,261.613 306.800 C 261.826 306.800,262.000 306.260,262.000 305.600 C 262.000 304.940,261.826 304.400,261.613 304.400 C 261.399 304.400,261.329 304.130,261.455 303.800 C 261.582 303.470,261.476 303.200,261.219 303.200 C 260.963 303.200,260.864 303.020,261.000 302.800 C 261.136 302.580,261.046 302.400,260.800 302.400 C 260.554 302.400,260.453 302.237,260.576 302.038 C 261.415 300.681,254.490 298.947,252.000 299.890 M266.600 300.563 C 264.181 302.497,264.656 312.000,267.171 312.000 C 267.955 312.000,268.001 311.776,268.014 307.900 C 268.024 305.102,268.210 303.482,268.600 302.800 C 268.914 302.250,269.181 301.980,269.192 302.200 C 269.203 302.420,269.367 302.356,269.555 302.059 C 270.711 300.234,272.000 303.193,272.000 307.672 L 272.000 312.000 273.400 312.000 L 274.800 312.000 274.800 307.672 C 274.800 303.519,274.842 303.308,275.832 302.447 L 276.864 301.550 277.831 302.675 C 278.720 303.708,278.799 304.139,278.800 307.927 L 278.800 312.053 279.900 311.927 L 281.000 311.800 281.114 307.500 C 281.194 304.462,281.370 303.196,281.714 303.187 C 282.003 303.180,281.927 302.967,281.525 302.661 C 281.153 302.379,280.793 301.894,280.725 301.584 C 280.330 299.797,276.031 298.862,274.178 300.160 C 273.493 300.640,273.269 300.640,272.613 300.160 C 271.332 299.224,267.996 299.447,266.600 300.563 M287.856 300.640 C 285.401 302.308,284.548 305.378,285.780 308.113 C 286.495 309.701,288.395 311.993,288.398 311.271 C 288.400 310.833,288.490 310.833,288.929 311.271 C 289.734 312.077,295.183 311.912,295.803 311.063 C 296.065 310.705,296.381 310.515,296.506 310.639 C 296.964 311.097,298.400 307.045,298.400 305.296 C 298.400 300.422,292.203 297.685,287.856 300.640 M304.100 299.893 L 302.400 300.046 302.400 305.390 C 302.400 311.432,302.520 312.000,303.800 312.000 C 305.024 312.000,305.200 311.377,305.200 307.047 C 305.200 303.159,305.496 302.400,307.013 302.400 C 307.639 302.400,307.980 302.028,308.295 301.000 L 308.725 299.600 307.263 299.670 C 306.458 299.708,305.035 299.809,304.100 299.893 M313.689 299.893 L 311.979 300.047 312.089 305.924 C 312.200 311.777,312.204 311.801,313.155 311.935 C 314.558 312.133,314.787 311.433,314.794 306.918 L 314.800 302.836 316.163 302.581 C 317.449 302.339,317.740 301.986,318.206 300.100 C 318.331 299.593,317.471 299.554,313.689 299.893 M323.767 299.988 C 320.497 301.310,319.396 306.670,321.805 309.533 C 322.340 310.169,322.648 310.829,322.489 310.999 C 322.330 311.170,322.466 311.226,322.791 311.124 C 323.117 311.022,323.732 311.265,324.159 311.662 C 324.745 312.208,325.067 312.276,325.472 311.941 C 325.777 311.687,326.695 311.588,327.604 311.710 C 328.666 311.852,329.202 311.769,329.206 311.462 C 329.210 311.183,329.353 311.222,329.566 311.559 C 329.852 312.010,330.023 311.952,330.456 311.259 C 330.751 310.786,331.264 310.399,331.596 310.399 C 333.228 310.394,334.124 304.844,332.871 302.497 C 331.577 300.070,326.811 298.756,323.767 299.988 M120.400 303.951 C 120.400 308.320,121.012 310.450,122.499 311.264 C 123.524 311.824,128.000 312.011,128.000 311.493 C 128.000 311.306,128.161 311.252,128.358 311.374 C 128.555 311.496,128.820 311.325,128.947 310.994 C 129.074 310.663,129.400 310.439,129.671 310.496 C 129.942 310.553,130.181 310.420,130.201 310.200 C 130.289 309.270,130.882 308.000,131.227 308.000 C 131.433 308.000,131.600 306.207,131.600 304.000 L 131.600 300.000 129.800 300.000 C 128.810 300.000,128.000 300.180,128.000 300.400 C 128.000 300.620,128.180 300.800,128.400 300.800 C 129.142 300.800,128.897 306.677,128.143 306.967 C 127.781 307.105,127.586 307.320,127.709 307.443 C 127.833 307.566,127.627 307.973,127.252 308.348 C 126.552 309.048,124.800 309.293,124.800 308.691 C 124.800 308.505,124.592 308.481,124.338 308.638 C 124.051 308.816,123.985 308.748,124.164 308.459 C 124.324 308.199,124.175 307.889,123.825 307.754 C 123.320 307.560,123.200 306.796,123.200 303.757 L 123.200 300.000 121.800 300.000 L 120.400 300.000 120.400 303.951 M197.200 306.000 L 197.200 312.000 198.400 312.000 L 199.600 312.000 199.600 306.000 L 199.600 300.000 198.400 300.000 L 197.200 300.000 197.200 306.000 M200.160 305.800 C 200.161 309.100,200.222 310.397,200.298 308.682 C 200.373 306.967,200.372 304.267,200.297 302.682 C 200.221 301.097,200.159 302.500,200.160 305.800 M335.831 300.350 C 335.697 300.567,335.763 300.853,335.977 300.986 C 336.192 301.119,336.678 302.211,337.057 303.414 C 337.436 304.616,337.888 305.600,338.060 305.600 C 338.233 305.600,338.271 305.870,338.145 306.200 C 338.018 306.530,338.124 306.800,338.381 306.800 C 338.637 306.800,338.736 306.980,338.600 307.200 C 338.464 307.420,338.563 307.600,338.819 307.600 C 339.076 307.600,339.182 307.870,339.055 308.200 C 338.929 308.530,338.971 308.800,339.149 308.800 C 339.326 308.800,339.710 309.520,340.000 310.400 C 340.290 311.280,340.698 312.000,340.907 312.000 C 341.115 312.000,341.182 311.730,341.055 311.400 C 340.929 311.070,341.019 310.800,341.255 310.800 C 341.492 310.800,341.582 310.530,341.455 310.200 C 341.329 309.870,341.377 309.600,341.562 309.600 C 341.747 309.600,342.252 308.782,342.685 307.782 L 343.472 305.965 344.660 308.967 C 345.807 311.863,345.872 311.941,346.520 311.185 C 346.890 310.753,347.109 310.400,347.007 310.400 C 346.612 310.400,349.786 302.176,350.342 301.758 C 351.239 301.083,350.602 299.999,349.313 300.006 C 347.692 300.015,347.376 300.350,346.574 302.905 C 345.772 305.460,345.619 305.444,344.598 302.700 C 343.668 300.199,343.118 300.303,341.967 303.200 C 341.002 305.631,340.163 306.485,340.651 304.540 C 340.843 303.776,340.784 303.562,340.442 303.774 C 340.103 303.984,340.030 303.745,340.186 302.934 C 340.306 302.310,340.284 302.068,340.137 302.396 C 339.948 302.818,339.732 302.583,339.401 301.596 C 338.924 300.171,336.471 299.315,335.831 300.350 M110.400 302.033 C 110.400 302.272,110.619 302.394,110.886 302.305 C 111.153 302.216,111.783 302.632,112.286 303.229 C 113.360 304.506,113.603 307.600,112.629 307.600 C 112.315 307.600,111.998 307.915,111.924 308.300 C 111.776 309.067,108.400 309.411,108.400 308.658 C 108.400 308.443,108.283 308.383,108.141 308.526 C 107.789 308.877,106.431 307.264,106.157 306.169 C 105.845 304.929,107.021 302.860,108.207 302.562 C 108.753 302.425,109.200 302.153,109.200 301.957 C 109.200 301.760,109.470 301.600,109.800 301.600 C 110.130 301.600,110.400 301.795,110.400 302.033 M255.600 302.000 C 255.600 302.220,255.774 302.400,255.986 302.400 C 256.683 302.400,258.800 304.756,258.800 305.531 C 258.800 306.376,256.595 308.889,255.479 309.316 C 255.006 309.496,254.852 309.440,255.029 309.153 C 255.208 308.864,255.026 308.801,254.497 308.969 C 253.968 309.137,253.614 309.015,253.459 308.608 C 253.329 308.270,252.992 308.039,252.711 308.096 C 252.430 308.153,252.245 307.975,252.300 307.700 C 252.355 307.425,252.259 307.200,252.087 307.200 C 250.811 307.200,252.118 302.891,253.500 302.541 C 253.995 302.416,254.400 302.153,254.400 301.957 C 254.400 301.760,254.670 301.600,255.000 301.600 C 255.330 301.600,255.600 301.780,255.600 302.000 M292.950 302.140 C 295.605 303.518,296.278 305.951,294.527 307.842 C 293.494 308.956,290.400 309.618,290.400 308.725 C 290.400 308.546,290.151 308.400,289.846 308.400 C 289.541 308.400,288.999 307.785,288.643 307.034 C 287.698 305.043,288.392 303.572,290.943 302.155 C 291.414 301.893,291.824 301.661,291.854 301.639 C 291.884 301.618,292.377 301.843,292.950 302.140 M327.600 302.043 C 327.600 302.286,327.870 302.382,328.200 302.255 C 328.530 302.129,328.800 302.191,328.800 302.394 C 328.800 302.597,329.270 303.234,329.845 303.808 C 331.092 305.056,330.968 306.546,329.482 308.149 C 328.402 309.315,326.194 309.446,325.270 308.400 C 324.882 307.960,324.819 307.950,325.032 308.362 C 325.224 308.731,325.165 308.826,324.862 308.638 C 324.608 308.481,324.400 308.093,324.400 307.776 C 324.400 307.459,324.223 307.200,324.008 307.200 C 322.407 307.200,323.756 302.977,325.496 302.540 C 325.993 302.415,326.400 302.153,326.400 301.957 C 326.400 301.760,326.670 301.600,327.000 301.600 C 327.330 301.600,327.600 301.799,327.600 302.043 " stroke="none" fill="#050505" fill-rule="evenodd"></path><path id="path1" d="M108.031 76.067 C 106.298 76.708,105.788 78.060,106.000 81.456 C 106.349 87.051,105.222 86.800,130.026 86.800 C 141.232 86.800,150.400 86.912,150.400 87.048 C 150.400 87.185,147.369 90.331,143.664 94.040 L 136.928 100.784 108.540 100.892 L 80.153 101.000 78.976 102.000 C 77.806 102.995,77.801 103.017,78.000 106.501 C 78.126 108.699,78.051 110.005,77.800 110.010 C 77.580 110.014,78.185 110.374,79.144 110.809 C 80.814 111.567,81.824 111.600,103.244 111.600 C 115.540 111.600,125.600 111.677,125.600 111.770 C 125.600 111.864,121.569 116.004,116.643 120.970 L 107.685 130.000 82.390 130.000 C 57.462 130.000,57.075 130.012,55.747 130.833 L 54.400 131.665 54.400 135.187 C 54.400 138.513,54.456 138.745,55.413 139.372 C 55.970 139.737,56.347 140.162,56.251 140.318 C 56.155 140.473,67.624 140.555,81.738 140.501 L 107.400 140.401 134.174 167.194 C 148.899 181.930,161.032 193.901,161.137 193.797 C 161.241 193.692,161.576 193.814,161.880 194.067 C 162.297 194.413,162.548 194.412,162.897 194.063 C 163.152 193.808,163.729 193.600,164.180 193.599 C 166.237 193.598,169.161 188.669,168.371 186.534 C 168.202 186.077,156.800 174.455,143.032 160.707 C 129.264 146.959,118.000 135.551,118.000 135.356 C 118.000 135.162,129.333 123.662,143.184 109.801 L 168.368 84.600 168.431 81.600 C 168.498 78.423,167.938 76.561,166.807 76.202 C 165.812 75.887,108.874 75.755,108.031 76.067 " stroke="none" fill="#bb3a23" fill-rule="evenodd"></path><path id="path2" d="M235.728 77.714 C 232.125 81.103,232.185 83.107,235.987 86.454 C 237.292 87.602,238.265 88.695,238.150 88.881 C 238.035 89.067,238.089 89.172,238.270 89.113 C 238.683 88.979,280.235 130.489,280.099 130.900 C 280.045 131.065,280.159 131.155,280.352 131.100 C 280.546 131.045,281.433 131.823,282.324 132.829 L 283.944 134.659 258.583 160.017 C 230.625 187.972,232.262 186.032,232.991 190.345 C 233.284 192.083,234.926 194.080,235.790 193.749 C 236.081 193.637,236.436 193.735,236.580 193.967 C 236.930 194.533,292.654 194.560,293.003 193.995 C 293.137 193.778,293.606 193.600,294.044 193.600 C 296.094 193.600,296.838 186.474,294.982 184.618 C 294.422 184.058,293.927 183.559,293.882 183.509 C 293.837 183.459,284.185 183.324,272.433 183.209 L 251.066 183.000 256.788 177.310 C 259.934 174.181,262.692 171.733,262.916 171.872 C 263.153 172.018,263.201 171.925,263.031 171.651 C 262.859 171.371,263.260 170.692,264.012 169.989 L 265.285 168.800 293.281 168.800 C 323.881 168.800,322.891 168.874,323.966 166.515 C 324.897 164.471,324.276 159.776,322.891 158.400 C 322.559 158.070,322.413 158.025,322.567 158.300 C 322.905 158.903,322.759 158.917,321.417 158.406 C 320.785 158.166,311.774 158.005,298.320 157.993 L 276.259 157.974 278.030 156.126 C 279.003 155.110,283.026 151.066,286.970 147.140 L 294.139 140.000 319.010 140.000 C 348.731 140.000,347.600 140.211,347.600 134.673 C 347.600 128.946,348.909 129.200,319.404 129.200 L 294.729 129.200 268.665 103.113 C 254.329 88.765,242.150 76.778,241.600 76.475 C 239.452 75.292,237.971 75.605,235.728 77.714 M98.799 237.524 C 98.800 249.169,98.953 258.353,99.145 258.234 C 99.335 258.116,99.601 258.950,99.736 260.086 C 100.170 263.755,103.140 268.332,105.725 269.318 C 106.124 269.470,106.340 269.774,106.205 269.993 C 106.057 270.231,106.234 270.285,106.645 270.127 C 107.091 269.956,107.236 270.018,107.059 270.304 C 106.909 270.547,106.998 270.875,107.255 271.034 C 107.548 271.215,107.616 271.150,107.438 270.862 C 107.281 270.608,107.349 270.400,107.589 270.400 C 107.829 270.400,108.128 270.669,108.254 270.998 C 108.381 271.326,108.645 271.496,108.842 271.374 C 109.039 271.252,109.200 271.354,109.200 271.600 C 109.200 271.846,109.380 271.936,109.600 271.800 C 109.820 271.664,110.000 271.773,110.000 272.043 C 110.000 272.313,110.113 272.421,110.251 272.283 C 110.389 272.145,111.041 272.311,111.700 272.652 C 113.173 273.414,113.344 273.265,115.371 269.462 C 117.150 266.123,117.041 265.718,113.949 264.200 C 108.252 261.403,108.410 262.178,108.404 236.924 L 108.400 216.847 103.599 216.724 L 98.798 216.600 98.799 237.524 M6.573 217.327 C 6.461 217.617,6.422 219.732,6.485 222.027 L 6.600 226.200 14.700 226.308 L 22.800 226.417 22.800 249.208 L 22.800 272.000 27.800 272.000 L 32.800 272.000 32.800 249.200 L 32.800 226.400 41.000 226.400 L 49.200 226.400 49.200 221.600 L 49.200 216.800 27.987 216.800 C 10.806 216.800,6.736 216.900,6.573 217.327 M212.000 221.596 L 212.000 226.400 220.200 226.400 L 228.400 226.400 228.400 249.200 L 228.400 272.000 233.400 272.000 L 238.400 272.000 238.400 249.200 L 238.400 226.400 246.613 226.400 L 254.825 226.400 254.713 221.700 L 254.600 217.000 233.300 216.896 L 212.000 216.793 212.000 221.596 M352.305 244.400 L 352.200 272.000 356.700 272.000 L 361.200 272.000 361.200 258.860 C 361.200 244.950,361.334 243.751,363.075 242.110 C 363.594 241.621,364.033 241.081,364.050 240.910 C 364.066 240.740,364.255 240.649,364.470 240.710 C 364.684 240.770,364.754 240.649,364.625 240.440 C 363.827 239.149,369.195 237.394,373.006 237.700 C 380.731 238.320,381.992 241.489,381.997 260.300 L 382.000 272.000 386.426 272.000 L 390.852 272.000 390.670 256.900 C 390.493 242.153,390.410 240.010,390.000 239.600 C 389.890 239.490,389.265 238.320,388.611 237.000 C 386.750 233.242,381.972 229.200,379.390 229.200 C 379.039 229.200,378.848 229.046,378.964 228.858 C 379.081 228.670,378.731 228.601,378.188 228.704 C 377.645 228.808,377.200 228.737,377.200 228.547 C 377.200 228.356,375.850 228.200,374.200 228.200 C 372.550 228.200,371.200 228.356,371.200 228.547 C 371.200 228.737,370.756 228.808,370.214 228.705 C 369.672 228.601,369.177 228.625,369.114 228.758 C 369.051 228.891,367.879 229.526,366.508 230.170 C 365.138 230.813,363.529 231.848,362.933 232.470 C 361.237 234.240,361.200 234.086,361.200 225.200 L 361.200 216.800 356.805 216.800 L 352.411 216.800 352.305 244.400 M138.700 228.400 C 138.645 228.510,137.250 228.934,135.600 229.342 C 133.950 229.750,131.835 230.522,130.900 231.059 C 129.965 231.595,129.200 231.944,129.200 231.835 C 129.200 231.726,128.768 232.033,128.240 232.518 C 123.887 236.516,124.120 236.231,121.938 240.211 C 116.803 249.581,119.924 263.438,128.437 269.072 C 129.297 269.641,130.000 270.273,130.000 270.477 C 130.000 270.681,130.164 270.746,130.364 270.622 C 130.824 270.338,132.054 270.790,131.825 271.159 C 131.732 271.310,132.032 271.462,132.492 271.497 C 132.952 271.532,133.434 271.704,133.564 271.880 C 133.694 272.056,134.160 272.246,134.600 272.302 C 138.215 272.761,139.200 272.944,139.201 273.156 C 139.201 273.290,140.731 273.400,142.601 273.400 C 144.471 273.400,146.001 273.265,146.000 273.100 C 146.000 272.935,146.456 272.800,147.013 272.800 C 147.570 272.800,148.669 272.531,149.455 272.203 C 150.242 271.874,151.046 271.705,151.242 271.826 C 151.439 271.948,151.600 271.890,151.600 271.698 C 151.600 271.160,154.393 269.951,154.927 270.258 C 155.187 270.406,155.266 270.380,155.102 270.200 C 154.938 270.019,155.478 269.425,156.302 268.880 C 157.126 268.334,158.278 267.446,158.863 266.905 C 159.447 266.364,160.077 265.900,160.263 265.873 C 160.448 265.846,160.554 265.624,160.498 265.380 C 160.442 265.137,160.847 264.696,161.398 264.401 C 163.106 263.487,162.306 262.467,158.424 260.612 C 157.109 259.983,156.108 259.348,156.199 259.201 C 156.290 259.054,155.751 258.933,155.000 258.933 C 154.249 258.933,153.709 259.054,153.800 259.200 C 154.852 260.902,146.979 264.966,142.466 265.050 C 137.589 265.141,129.848 260.556,130.522 257.975 C 130.651 257.485,130.567 257.297,130.295 257.465 C 130.020 257.635,129.959 257.483,130.127 257.045 C 130.284 256.637,130.230 256.458,129.995 256.603 C 129.760 256.749,129.600 256.192,129.600 255.224 L 129.600 253.600 147.100 253.599 L 164.600 253.598 164.600 250.399 C 164.601 248.640,164.501 247.200,164.380 247.200 C 164.258 247.200,164.141 246.565,164.119 245.790 C 164.097 245.014,163.797 243.950,163.454 243.426 C 163.110 242.901,162.736 241.962,162.623 241.339 C 162.510 240.716,162.233 240.144,162.006 240.069 C 161.780 239.993,161.697 239.767,161.821 239.566 C 161.945 239.365,161.827 239.200,161.557 239.200 C 161.287 239.200,161.186 239.081,161.331 238.936 C 161.476 238.791,161.236 238.420,160.797 238.113 C 160.359 237.806,160.000 237.376,160.000 237.158 C 160.000 234.903,150.152 228.800,146.514 228.800 C 145.985 228.800,145.636 228.665,145.737 228.500 C 145.839 228.335,144.319 228.200,142.360 228.200 C 140.402 228.200,138.754 228.290,138.700 228.400 M270.000 228.408 C 270.000 228.523,268.882 228.829,267.516 229.089 C 252.233 231.993,244.638 253.932,255.075 265.025 C 255.683 265.671,256.138 266.339,256.087 266.509 C 256.036 266.679,256.400 266.981,256.897 267.181 C 257.394 267.381,258.520 268.226,259.400 269.057 C 260.280 269.889,261.180 270.580,261.400 270.593 C 262.247 270.642,263.600 271.270,263.600 271.614 C 263.600 271.813,263.870 271.871,264.200 271.745 C 264.530 271.618,264.800 271.669,264.801 271.857 C 264.801 272.046,265.385 272.241,266.098 272.292 C 266.811 272.342,267.445 272.535,267.507 272.721 C 267.569 272.907,268.155 272.980,268.810 272.884 C 269.464 272.788,270.000 272.865,270.000 273.055 C 270.000 273.460,276.275 273.410,277.300 272.997 C 277.685 272.841,278.258 272.814,278.574 272.935 C 278.890 273.056,279.205 272.990,279.274 272.789 C 279.343 272.588,279.850 272.373,280.400 272.312 C 280.950 272.250,281.490 272.110,281.600 272.000 C 282.209 271.391,285.718 270.026,286.088 270.254 C 286.349 270.415,286.409 270.338,286.238 270.062 C 286.081 269.808,286.118 269.600,286.320 269.600 C 286.522 269.600,287.523 268.865,288.544 267.966 C 289.565 267.067,290.400 266.444,290.400 266.582 C 290.400 266.719,290.651 266.599,290.958 266.316 C 291.265 266.032,291.443 265.679,291.354 265.532 C 291.265 265.385,291.644 264.909,292.196 264.474 C 293.749 263.253,293.434 262.722,290.164 261.043 C 288.496 260.187,287.042 259.253,286.932 258.968 C 286.629 258.178,285.599 258.738,283.446 260.864 C 275.656 268.557,260.400 264.376,260.400 254.550 L 260.400 253.600 278.100 253.600 L 295.800 253.601 295.734 250.940 C 295.658 247.872,294.854 243.200,294.402 243.200 C 294.233 243.200,293.891 242.390,293.642 241.400 C 293.392 240.410,293.000 239.600,292.771 239.600 C 292.541 239.600,292.444 239.452,292.556 239.271 C 292.668 239.091,292.393 238.630,291.946 238.247 C 291.499 237.864,291.232 237.294,291.352 236.980 C 291.475 236.660,291.358 236.451,291.086 236.505 C 290.819 236.557,290.645 236.375,290.700 236.100 C 290.755 235.825,290.665 235.636,290.500 235.679 C 290.335 235.723,289.396 235.009,288.414 234.092 C 286.669 232.464,280.901 229.200,279.769 229.200 C 279.456 229.200,279.200 229.051,279.200 228.869 C 279.200 228.687,278.660 228.618,278.000 228.715 C 277.340 228.812,276.800 228.735,276.800 228.545 C 276.800 228.355,275.270 228.200,273.400 228.200 C 271.530 228.200,270.000 228.294,270.000 228.408 M321.200 228.545 C 321.200 228.735,320.660 228.812,320.000 228.715 C 319.340 228.618,318.800 228.655,318.800 228.796 C 318.800 228.938,317.765 229.378,316.500 229.774 C 312.903 230.901,307.479 234.611,306.214 236.811 C 305.986 237.207,305.210 238.522,304.490 239.732 C 300.483 246.462,301.128 258.898,305.745 263.932 C 306.215 264.445,306.510 264.901,306.400 264.946 C 306.290 264.990,307.216 265.921,308.458 267.013 C 311.977 270.110,312.623 270.591,313.439 270.728 C 313.857 270.798,314.380 271.068,314.600 271.328 C 314.820 271.587,315.360 271.821,315.800 271.847 C 316.486 271.888,319.196 272.507,321.200 273.081 C 322.252 273.383,328.397 273.411,328.500 273.115 C 328.555 272.959,329.365 272.779,330.299 272.715 C 331.234 272.652,331.999 272.446,331.999 272.257 C 332.000 272.069,332.270 272.018,332.600 272.145 C 332.930 272.271,333.200 272.186,333.200 271.954 C 333.200 271.723,333.421 271.607,333.691 271.697 C 333.962 271.787,334.367 271.704,334.591 271.511 C 334.816 271.319,336.019 270.495,337.264 269.681 C 340.539 267.538,344.000 264.114,344.000 263.015 C 344.000 262.908,342.654 262.031,341.008 261.068 C 339.363 260.105,338.103 259.231,338.208 259.125 C 338.314 259.020,338.175 258.916,337.900 258.896 C 337.625 258.875,336.995 258.734,336.500 258.582 C 335.939 258.410,335.600 258.475,335.600 258.754 C 335.600 260.073,330.171 263.968,328.300 263.991 C 327.915 263.996,327.600 264.135,327.600 264.300 C 327.600 264.465,326.430 264.600,325.000 264.600 C 323.570 264.600,322.400 264.465,322.400 264.300 C 322.400 264.135,322.034 264.000,321.587 264.000 C 319.618 264.000,314.049 260.092,314.644 259.128 C 314.809 258.863,314.745 258.787,314.491 258.944 C 314.252 259.091,313.943 258.849,313.802 258.406 C 313.661 257.963,313.393 257.600,313.206 257.600 C 312.710 257.600,311.467 254.138,311.781 253.631 C 311.927 253.394,311.857 253.200,311.624 253.200 C 311.373 253.200,311.200 252.222,311.200 250.800 C 311.200 249.480,311.363 248.400,311.563 248.400 C 311.762 248.400,311.832 248.045,311.719 247.610 C 310.790 244.058,318.437 237.665,324.051 237.301 C 328.789 236.993,335.600 240.427,335.600 243.123 C 335.600 243.706,336.259 243.752,336.604 243.193 C 336.742 242.970,337.023 242.891,337.228 243.017 C 337.432 243.144,337.600 243.046,337.600 242.800 C 337.600 242.554,337.780 242.464,338.000 242.600 C 338.220 242.736,338.400 242.675,338.400 242.465 C 338.400 242.254,339.748 241.288,341.396 240.317 L 344.392 238.551 342.378 236.291 C 341.271 235.049,340.372 233.890,340.382 233.716 C 340.392 233.542,340.265 233.398,340.100 233.395 C 339.935 233.392,338.990 232.840,338.000 232.168 C 335.590 230.533,333.728 229.705,331.148 229.124 C 329.967 228.858,328.910 228.541,328.800 228.420 C 328.467 228.054,321.199 228.174,321.200 228.545 M48.895 244.500 C 49.023 257.433,49.136 259.690,49.755 261.600 C 50.574 264.131,53.360 268.643,54.469 269.237 C 54.883 269.459,55.124 269.799,55.005 269.992 C 54.885 270.186,54.998 270.475,55.255 270.634 C 55.565 270.825,55.616 270.749,55.406 270.410 C 55.052 269.836,55.052 269.837,57.700 271.189 C 58.745 271.723,59.600 272.298,59.600 272.467 C 59.600 272.636,59.870 272.671,60.200 272.545 C 60.530 272.418,60.800 272.489,60.800 272.702 C 60.800 272.915,61.250 273.003,61.800 272.898 C 62.350 272.793,62.800 272.863,62.800 273.053 C 62.800 273.244,64.240 273.400,66.000 273.400 C 67.760 273.400,69.200 273.288,69.200 273.151 C 69.200 272.907,72.311 272.226,72.900 272.341 C 73.065 272.374,73.200 272.242,73.200 272.049 C 73.200 271.696,75.450 270.613,76.200 270.605 C 76.420 270.602,76.600 270.391,76.600 270.136 C 76.600 269.881,77.117 269.266,77.749 268.769 L 78.898 267.865 78.732 270.805 C 78.629 272.623,78.380 273.807,78.080 273.907 C 77.813 273.996,77.697 274.233,77.821 274.434 C 77.945 274.635,77.857 274.800,77.624 274.800 C 77.391 274.800,77.200 275.064,77.200 275.386 C 77.200 276.116,74.975 278.442,74.619 278.085 C 74.475 277.942,74.466 278.108,74.599 278.454 C 74.779 278.922,74.328 279.305,72.846 279.942 C 68.525 281.801,61.199 280.602,59.316 277.728 C 58.509 276.496,57.049 276.665,54.999 278.228 C 54.189 278.845,53.424 279.147,53.117 278.970 C 52.833 278.806,52.736 278.821,52.901 279.004 C 53.067 279.186,52.467 279.774,51.567 280.311 L 49.932 281.286 51.066 282.500 C 54.127 285.778,55.053 286.525,57.376 287.589 C 69.586 293.181,84.131 287.454,86.808 276.000 C 87.069 274.880,87.261 265.772,87.314 251.900 L 87.400 229.600 82.900 229.600 L 78.400 229.600 78.400 242.729 C 78.400 256.988,78.222 258.400,76.092 261.000 C 74.857 262.508,72.480 263.995,71.300 263.998 C 70.805 263.999,70.400 264.135,70.400 264.300 C 70.400 264.624,66.185 264.594,65.200 264.263 C 64.870 264.152,63.959 263.864,63.175 263.624 C 58.309 262.133,57.611 259.512,57.605 242.700 L 57.600 229.600 53.174 229.600 L 48.748 229.600 48.895 244.500 M171.549 232.500 C 172.612 234.095,174.078 236.345,174.808 237.500 C 175.538 238.655,176.284 239.600,176.467 239.600 C 176.650 239.600,176.800 239.870,176.800 240.200 C 176.800 240.530,176.980 240.800,177.200 240.800 C 177.420 240.800,177.600 241.070,177.600 241.400 C 177.600 241.730,177.780 242.000,178.000 242.000 C 178.220 242.000,178.400 242.371,178.400 242.824 C 178.400 243.351,178.569 243.543,178.868 243.358 C 179.185 243.162,179.251 243.289,179.073 243.755 C 178.928 244.133,178.955 244.351,179.133 244.241 C 179.311 244.131,180.254 245.216,181.229 246.652 C 184.372 251.286,184.280 251.072,183.600 252.169 C 181.861 254.976,178.970 258.914,178.519 259.086 C 178.236 259.195,178.080 259.405,178.171 259.553 C 178.263 259.702,177.710 260.538,176.943 261.412 C 176.176 262.285,175.286 263.495,174.964 264.100 C 174.643 264.705,174.226 265.200,174.038 265.200 C 173.851 265.200,173.470 265.747,173.193 266.416 C 172.916 267.085,172.315 267.895,171.856 268.216 C 171.397 268.537,171.173 268.800,171.358 268.800 C 171.544 268.800,171.224 269.418,170.647 270.173 C 170.071 270.929,169.600 271.649,169.600 271.773 C 169.600 272.191,179.943 272.015,180.204 271.593 C 180.342 271.370,180.621 271.289,180.823 271.414 C 181.025 271.539,181.084 271.362,180.953 271.021 C 180.822 270.679,180.914 270.400,181.157 270.400 C 181.401 270.400,181.600 270.130,181.600 269.800 C 181.600 269.470,181.791 269.200,182.024 269.200 C 182.257 269.200,182.335 269.019,182.198 268.797 C 182.061 268.576,182.230 268.287,182.572 268.155 C 182.915 268.024,183.112 267.781,183.010 267.616 C 182.908 267.451,183.269 266.899,183.812 266.388 C 184.356 265.878,184.800 265.317,184.800 265.143 C 184.800 264.968,185.700 263.446,186.800 261.761 C 187.900 260.076,188.800 258.540,188.800 258.349 C 188.800 258.157,188.941 258.000,189.114 258.000 C 189.538 258.000,190.827 260.222,190.589 260.544 C 190.485 260.685,190.523 260.707,190.672 260.594 C 190.937 260.395,192.011 262.090,194.224 266.200 C 194.817 267.300,195.552 268.346,195.859 268.525 C 196.166 268.703,196.320 269.006,196.202 269.197 C 196.084 269.388,196.173 269.660,196.400 269.800 C 196.627 269.940,196.709 270.223,196.583 270.428 C 196.456 270.632,196.569 270.800,196.832 270.800 C 197.096 270.800,197.513 271.075,197.759 271.412 C 198.131 271.920,199.157 272.004,203.844 271.912 L 209.482 271.800 206.738 268.000 C 205.228 265.910,203.887 263.897,203.757 263.528 C 203.627 263.158,203.269 262.759,202.961 262.640 C 202.652 262.522,202.400 262.149,202.400 261.813 C 202.400 261.476,202.220 261.200,202.000 261.200 C 201.780 261.200,201.600 261.031,201.600 260.825 C 201.600 260.618,201.060 259.858,200.400 259.136 C 199.740 258.413,199.200 257.592,199.200 257.311 C 199.200 257.030,199.065 256.800,198.900 256.799 C 198.735 256.799,198.068 255.944,197.417 254.899 C 196.767 253.855,196.126 252.910,195.994 252.800 C 194.263 251.360,194.354 250.857,197.070 246.852 C 198.506 244.734,199.888 242.996,200.141 242.991 C 200.393 242.986,200.547 242.671,200.482 242.291 C 200.418 241.911,200.563 241.600,200.806 241.600 C 201.049 241.600,201.144 241.432,201.017 241.227 C 200.890 241.022,201.190 240.572,201.682 240.227 C 202.175 239.882,202.403 239.594,202.189 239.587 C 201.975 239.580,202.149 239.310,202.576 238.987 C 203.004 238.664,203.237 238.400,203.096 238.400 C 202.954 238.400,203.280 237.924,203.819 237.342 C 204.359 236.759,204.800 236.130,204.800 235.943 C 204.800 235.756,205.700 234.342,206.800 232.800 C 207.900 231.258,208.800 229.908,208.800 229.799 C 208.800 229.689,206.470 229.600,203.623 229.600 L 198.445 229.600 197.736 230.800 C 197.346 231.460,196.856 232.000,196.647 232.000 C 196.438 232.000,196.373 232.106,196.502 232.235 C 196.631 232.365,196.076 233.500,195.269 234.759 C 194.461 236.018,192.990 238.519,192.000 240.317 C 189.820 244.277,189.750 244.287,187.867 240.900 C 187.041 239.415,185.815 237.210,185.143 236.000 C 184.470 234.790,183.668 233.516,183.360 233.169 C 183.052 232.821,182.800 232.326,182.800 232.069 C 182.800 231.811,182.609 231.600,182.376 231.600 C 182.143 231.600,182.052 231.439,182.174 231.242 C 182.296 231.045,182.115 230.776,181.772 230.645 C 181.430 230.513,181.261 230.224,181.398 230.003 C 181.561 229.739,179.568 229.600,175.632 229.600 L 169.616 229.600 171.549 232.500 M145.375 236.973 C 147.594 237.640,150.527 239.470,150.208 239.987 C 150.086 240.184,150.198 240.475,150.455 240.634 C 150.776 240.832,150.817 240.746,150.585 240.362 C 150.303 239.894,150.353 239.886,150.884 240.317 C 151.505 240.819,153.209 244.110,153.764 245.879 L 154.040 246.757 141.820 246.788 C 129.808 246.819,129.600 246.806,129.600 246.010 C 129.600 245.564,129.791 245.200,130.024 245.200 C 130.257 245.200,130.345 245.035,130.221 244.834 C 129.701 243.992,131.935 240.501,132.605 241.107 C 132.783 241.268,132.816 241.204,132.680 240.963 C 131.250 238.451,140.562 235.524,145.375 236.973 M277.815 237.368 C 280.539 238.465,285.747 245.121,284.944 246.478 C 284.673 246.937,260.893 246.875,260.609 246.414 C 260.241 245.819,261.795 242.550,263.084 241.210 C 263.698 240.572,264.616 239.597,265.124 239.044 C 267.421 236.543,273.705 235.713,277.815 237.368 " stroke="none" fill="#fc9b2b" fill-rule="evenodd"></path><path id="path3" d="M168.528 81.600 C 168.528 83.030,168.601 83.615,168.689 82.900 C 168.778 82.185,168.778 81.015,168.689 80.300 C 168.601 79.585,168.528 80.170,168.528 81.600 M163.800 89.200 C 161.608 91.400,159.932 93.200,160.074 93.200 C 160.216 93.200,162.013 91.477,164.067 89.371 C 166.120 87.264,167.875 85.464,167.967 85.371 C 168.058 85.277,168.055 85.200,167.959 85.200 C 167.863 85.200,165.992 87.000,163.800 89.200 M146.575 90.900 L 145.400 92.200 146.700 91.025 C 147.912 89.930,148.184 89.600,147.875 89.600 C 147.806 89.600,147.221 90.185,146.575 90.900 M138.599 114.491 C 127.159 125.981,118.578 134.666,119.529 133.791 C 122.538 131.022,159.816 93.600,159.565 93.600 C 159.473 93.600,150.038 103.001,138.599 114.491 M140.575 96.900 L 139.400 98.200 140.700 97.025 C 141.912 95.930,142.184 95.600,141.875 95.600 C 141.806 95.600,141.221 96.185,140.575 96.900 M78.400 101.800 C 78.117 102.141,77.976 102.509,78.086 102.619 C 78.196 102.729,78.517 102.541,78.800 102.200 C 79.083 101.859,79.224 101.491,79.114 101.381 C 79.004 101.271,78.683 101.459,78.400 101.800 M77.577 103.700 C 77.407 104.437,77.540 109.273,77.735 109.469 C 77.881 109.614,78.000 108.353,78.000 106.667 C 78.000 104.271,77.788 102.785,77.577 103.700 M79.376 111.413 C 79.804 111.736,80.344 111.994,80.576 111.987 C 80.809 111.980,80.651 111.710,80.224 111.387 C 79.796 111.064,79.256 110.806,79.024 110.813 C 78.791 110.820,78.949 111.090,79.376 111.413 M109.578 127.900 L 108.200 129.400 109.700 128.022 C 110.525 127.263,111.200 126.588,111.200 126.522 C 111.200 126.216,110.862 126.504,109.578 127.900 M70.100 129.900 C 77.085 129.961,88.515 129.961,95.500 129.900 C 102.485 129.839,96.770 129.788,82.800 129.788 C 68.830 129.788,63.115 129.839,70.100 129.900 M54.128 135.200 C 54.128 136.630,54.201 137.215,54.289 136.500 C 54.378 135.785,54.378 134.615,54.289 133.900 C 54.201 133.185,54.128 133.770,54.128 135.200 M111.600 145.000 C 112.346 145.770,113.047 146.400,113.157 146.400 C 113.267 146.400,112.746 145.770,112.000 145.000 C 111.254 144.230,110.553 143.600,110.443 143.600 C 110.333 143.600,110.854 144.230,111.600 145.000 M128.800 146.600 C 129.546 147.370,130.247 148.000,130.357 148.000 C 130.467 148.000,129.946 147.370,129.200 146.600 C 128.454 145.830,127.753 145.200,127.643 145.200 C 127.533 145.200,128.054 145.830,128.800 146.600 M132.000 149.725 C 132.000 149.794,132.585 150.379,133.300 151.025 L 134.600 152.200 133.425 150.900 C 132.330 149.688,132.000 149.416,132.000 149.725 M121.600 155.000 C 122.795 156.210,123.863 157.200,123.973 157.200 C 124.083 157.200,123.195 156.210,122.000 155.000 C 120.805 153.790,119.737 152.800,119.627 152.800 C 119.517 152.800,120.405 153.790,121.600 155.000 M138.800 156.600 C 139.546 157.370,140.247 158.000,140.357 158.000 C 140.467 158.000,139.946 157.370,139.200 156.600 C 138.454 155.830,137.753 155.200,137.643 155.200 C 137.533 155.200,138.054 155.830,138.800 156.600 M148.000 165.725 C 148.000 165.794,148.585 166.379,149.300 167.025 L 150.600 168.200 149.425 166.900 C 148.330 165.688,148.000 165.416,148.000 165.725 M140.000 173.325 C 140.000 173.394,140.585 173.979,141.300 174.625 L 142.600 175.800 141.425 174.500 C 140.330 173.288,140.000 173.016,140.000 173.325 M158.800 176.600 C 159.546 177.370,160.247 178.000,160.357 178.000 C 160.467 178.000,159.946 177.370,159.200 176.600 C 158.454 175.830,157.753 175.200,157.643 175.200 C 157.533 175.200,158.054 175.830,158.800 176.600 M150.400 183.725 C 150.400 183.794,150.985 184.379,151.700 185.025 L 153.000 186.200 151.825 184.900 C 150.730 183.688,150.400 183.416,150.400 183.725 M153.600 186.925 C 153.600 186.994,154.185 187.579,154.900 188.225 L 156.200 189.400 155.025 188.100 C 153.930 186.888,153.600 186.616,153.600 186.925 " stroke="none" fill="#c4543e" fill-rule="evenodd"></path><path id="path4" d="M186.729 102.300 C 194.500 102.361,207.100 102.361,214.729 102.300 C 222.358 102.239,216.000 102.189,200.600 102.189 C 185.200 102.189,178.958 102.239,186.729 102.300 M182.897 114.700 L 193.195 114.813 193.300 144.707 L 193.405 174.600 193.503 144.500 L 193.600 114.400 183.100 114.493 L 172.600 114.586 182.897 114.700 M212.700 114.699 C 215.615 114.767,220.385 114.767,223.300 114.699 C 226.215 114.631,223.830 114.575,218.000 114.575 C 212.170 114.575,209.785 114.631,212.700 114.699 M59.835 295.943 C 59.719 296.131,60.428 296.286,61.412 296.286 C 62.395 296.286,63.200 296.131,63.200 295.943 C 63.200 295.754,62.491 295.600,61.624 295.600 C 60.757 295.600,59.952 295.754,59.835 295.943 M91.005 296.008 C 91.176 296.285,93.269 296.415,96.935 296.375 L 102.600 296.312 102.862 297.656 C 103.117 298.961,103.123 298.954,103.062 297.400 L 103.000 295.800 96.870 295.689 C 92.583 295.612,90.819 295.708,91.005 296.008 M150.800 296.045 C 150.800 296.313,151.280 296.420,152.000 296.315 C 153.193 296.140,153.200 296.151,153.260 298.169 L 153.320 300.200 153.572 298.400 C 153.711 297.410,153.754 296.375,153.669 296.100 C 153.478 295.481,150.800 295.430,150.800 296.045 M173.200 296.000 C 173.200 296.220,174.010 296.400,175.000 296.400 C 176.436 296.400,176.806 296.542,176.832 297.100 C 176.851 297.540,176.940 297.609,177.069 297.287 C 177.433 296.381,176.359 295.600,174.751 295.600 C 173.898 295.600,173.200 295.780,173.200 296.000 M190.200 296.000 C 190.336 296.220,191.052 296.400,191.790 296.400 C 192.529 296.400,193.224 296.625,193.335 296.900 C 193.446 297.175,193.551 296.995,193.568 296.500 C 193.597 295.694,193.410 295.600,191.776 295.600 C 190.663 295.600,190.049 295.756,190.200 296.000 M213.200 296.013 C 213.200 296.239,213.830 296.383,214.600 296.331 C 215.370 296.279,216.000 296.093,216.000 295.918 C 216.000 295.743,215.370 295.600,214.600 295.600 C 213.830 295.600,213.200 295.786,213.200 296.013 M236.400 296.004 C 236.741 296.234,239.333 296.387,242.400 296.359 L 247.800 296.310 248.062 297.655 C 248.317 298.962,248.323 298.955,248.262 297.400 L 248.200 295.800 242.000 295.700 C 237.720 295.631,235.986 295.725,236.400 296.004 M199.600 297.176 C 199.600 297.629,199.780 298.000,200.000 298.000 C 200.220 298.000,200.400 297.741,200.400 297.424 C 200.400 297.107,200.220 296.736,200.000 296.600 C 199.780 296.464,199.600 296.723,199.600 297.176 M183.500 297.533 C 184.320 298.392,184.517 298.369,184.167 297.457 C 184.028 297.096,183.664 296.800,183.357 296.800 C 182.933 296.800,182.967 296.975,183.500 297.533 M73.000 299.200 C 72.412 299.453,72.731 299.544,74.200 299.544 C 75.669 299.544,75.988 299.453,75.400 299.200 C 74.960 299.011,74.420 298.856,74.200 298.856 C 73.980 298.856,73.440 299.011,73.000 299.200 M107.800 299.200 C 107.936 299.420,108.857 299.600,109.847 299.600 C 110.945 299.600,111.551 299.444,111.400 299.200 C 111.264 298.980,110.343 298.800,109.353 298.800 C 108.255 298.800,107.649 298.956,107.800 299.200 M139.787 299.180 C 139.930 299.411,140.857 299.600,141.847 299.600 C 144.189 299.600,143.807 298.981,141.387 298.856 C 140.169 298.793,139.617 298.904,139.787 299.180 M155.600 299.205 C 155.169 299.480,155.537 299.589,156.900 299.594 C 157.945 299.597,158.800 299.465,158.799 299.300 C 158.798 298.844,156.282 298.769,155.600 299.205 M217.658 299.351 C 216.813 299.819,216.940 299.854,218.901 299.692 C 220.143 299.589,221.455 299.708,221.943 299.969 C 222.414 300.222,222.800 300.323,222.800 300.194 C 222.800 299.201,219.040 298.584,217.658 299.351 M252.987 299.180 C 253.130 299.411,254.057 299.600,255.047 299.600 C 257.389 299.600,257.007 298.981,254.587 298.856 C 253.369 298.793,252.817 298.904,252.987 299.180 M268.400 299.263 C 268.400 299.448,269.120 299.600,270.000 299.600 C 270.880 299.600,271.600 299.461,271.600 299.291 C 271.600 299.121,270.880 298.970,270.000 298.954 C 269.120 298.939,268.400 299.078,268.400 299.263 M275.201 299.300 C 275.200 299.465,275.920 299.600,276.800 299.600 C 277.680 299.600,278.400 299.416,278.400 299.190 C 278.400 298.961,277.697 298.829,276.801 298.890 C 275.921 298.951,275.201 299.135,275.201 299.300 M290.235 299.257 C 290.352 299.446,291.277 299.600,292.290 299.600 C 293.304 299.600,294.012 299.479,293.865 299.331 C 293.463 298.930,289.989 298.859,290.235 299.257 M306.000 299.194 C 306.000 299.417,306.540 299.600,307.200 299.600 C 307.860 299.600,308.400 299.458,308.400 299.285 C 308.400 299.112,307.860 298.929,307.200 298.879 C 306.540 298.828,306.000 298.970,306.000 299.194 M316.000 299.200 C 315.550 299.491,315.750 299.588,316.800 299.588 C 317.850 299.588,318.050 299.491,317.600 299.200 C 317.270 298.987,316.910 298.812,316.800 298.812 C 316.690 298.812,316.330 298.987,316.000 299.200 M325.000 299.200 C 325.136 299.420,326.092 299.597,327.124 299.594 C 328.483 299.589,328.835 299.481,328.400 299.200 C 327.596 298.680,324.679 298.680,325.000 299.200 M67.600 305.800 C 67.600 309.864,67.745 312.000,68.020 312.000 C 68.300 312.000,68.400 310.000,68.320 305.999 L 68.200 299.999 69.300 299.999 C 69.905 300.000,70.400 300.191,70.400 300.424 C 70.400 300.657,70.599 300.724,70.843 300.574 C 71.517 300.157,70.427 299.613,68.900 299.606 L 67.600 299.600 67.600 305.800 M121.105 299.883 C 121.602 299.979,122.322 299.975,122.705 299.875 C 123.087 299.775,122.680 299.696,121.800 299.701 C 120.920 299.705,120.607 299.787,121.105 299.883 M128.905 299.887 C 129.514 299.979,130.414 299.977,130.905 299.882 C 131.397 299.787,130.900 299.711,129.800 299.714 C 128.700 299.717,128.297 299.795,128.905 299.887 M196.720 305.778 C 196.654 309.201,196.735 312.001,196.900 312.001 C 197.065 312.000,197.200 309.300,197.200 306.000 L 197.200 300.000 198.390 300.000 L 199.579 300.000 199.706 306.000 L 199.832 312.001 199.816 305.900 L 199.800 299.800 198.320 299.677 L 196.840 299.554 196.720 305.778 M287.106 300.836 L 285.800 302.072 287.400 300.952 C 288.280 300.336,289.075 299.780,289.167 299.716 C 289.258 299.652,289.126 299.600,288.873 299.600 C 288.620 299.600,287.825 300.156,287.106 300.836 M303.100 299.882 C 303.595 299.978,304.405 299.978,304.900 299.882 C 305.395 299.787,304.990 299.709,304.000 299.709 C 303.010 299.709,302.605 299.787,303.100 299.882 M312.700 299.882 C 313.195 299.978,314.005 299.978,314.500 299.882 C 314.995 299.787,314.590 299.709,313.600 299.709 C 312.610 299.709,312.205 299.787,312.700 299.882 M330.224 300.187 C 330.651 300.510,331.180 300.775,331.400 300.775 C 331.620 300.775,331.451 300.510,331.024 300.187 C 330.596 299.864,330.067 299.600,329.847 299.600 C 329.627 299.600,329.796 299.864,330.224 300.187 M335.600 299.900 C 335.600 300.065,336.393 300.200,337.362 300.200 C 338.331 300.200,339.040 300.065,338.938 299.900 C 338.836 299.735,338.043 299.600,337.176 299.600 C 336.309 299.600,335.600 299.735,335.600 299.900 M347.200 299.900 C 347.200 300.065,348.100 300.200,349.200 300.200 C 350.300 300.200,351.200 300.065,351.200 299.900 C 351.200 299.735,350.300 299.600,349.200 299.600 C 348.100 299.600,347.200 299.735,347.200 299.900 M308.236 300.999 C 308.071 301.655,307.726 302.326,307.468 302.490 C 307.123 302.710,307.134 302.789,307.510 302.794 C 308.065 302.801,308.916 300.947,308.681 300.242 C 308.601 300.002,308.401 300.343,308.236 300.999 M128.000 303.800 C 128.000 305.533,128.169 306.800,128.400 306.800 C 128.631 306.800,128.800 305.533,128.800 303.800 C 128.800 302.067,128.631 300.800,128.400 300.800 C 128.169 300.800,128.000 302.067,128.000 303.800 M175.029 301.600 C 175.176 302.150,175.464 302.870,175.667 303.200 C 175.925 303.617,175.957 303.495,175.771 302.800 C 175.624 302.250,175.336 301.530,175.133 301.200 C 174.875 300.783,174.843 300.905,175.029 301.600 M280.643 301.767 C 280.776 302.115,281.061 302.400,281.276 302.400 C 281.802 302.400,281.473 301.491,280.875 301.292 C 280.582 301.194,280.493 301.377,280.643 301.767 M72.800 302.000 C 72.800 302.220,73.070 302.400,73.400 302.400 C 73.730 302.400,74.000 302.220,74.000 302.000 C 74.000 301.780,73.730 301.600,73.400 301.600 C 73.070 301.600,72.800 301.780,72.800 302.000 M109.200 302.000 C 109.200 302.220,109.470 302.400,109.800 302.400 C 110.130 302.400,110.400 302.220,110.400 302.000 C 110.400 301.780,110.130 301.600,109.800 301.600 C 109.470 301.600,109.200 301.780,109.200 302.000 M141.200 302.000 C 141.200 302.220,141.470 302.400,141.800 302.400 C 142.130 302.400,142.400 302.220,142.400 302.000 C 142.400 301.780,142.130 301.600,141.800 301.600 C 141.470 301.600,141.200 301.780,141.200 302.000 M155.101 302.337 C 154.496 302.701,154.001 303.139,154.001 303.309 C 154.000 303.479,154.449 303.324,154.997 302.965 C 155.660 302.531,156.364 302.402,157.097 302.582 C 158.155 302.842,158.167 302.828,157.400 302.239 C 156.442 301.504,156.482 301.503,155.101 302.337 M218.400 302.000 C 218.400 302.220,218.670 302.400,219.000 302.400 C 219.330 302.400,219.600 302.220,219.600 302.000 C 219.600 301.780,219.330 301.600,219.000 301.600 C 218.670 301.600,218.400 301.780,218.400 302.000 M254.400 302.000 C 254.400 302.220,254.670 302.400,255.000 302.400 C 255.330 302.400,255.600 302.220,255.600 302.000 C 255.600 301.780,255.330 301.600,255.000 301.600 C 254.670 301.600,254.400 301.780,254.400 302.000 M291.400 302.000 C 291.264 302.220,291.534 302.400,292.000 302.400 C 292.466 302.400,292.736 302.220,292.600 302.000 C 292.464 301.780,292.194 301.600,292.000 301.600 C 291.806 301.600,291.536 301.780,291.400 302.000 M326.400 302.000 C 326.400 302.220,326.670 302.400,327.000 302.400 C 327.330 302.400,327.600 302.220,327.600 302.000 C 327.600 301.780,327.330 301.600,327.000 301.600 C 326.670 301.600,326.400 301.780,326.400 302.000 M203.200 302.400 C 203.200 302.620,203.470 302.800,203.800 302.800 C 204.130 302.800,204.400 302.620,204.400 302.400 C 204.400 302.180,204.130 302.000,203.800 302.000 C 203.470 302.000,203.200 302.180,203.200 302.400 M207.600 302.400 C 207.600 302.620,208.050 302.800,208.600 302.800 C 209.150 302.800,209.600 302.620,209.600 302.400 C 209.600 302.180,209.150 302.000,208.600 302.000 C 208.050 302.000,207.600 302.180,207.600 302.400 M349.600 302.367 C 349.600 302.569,349.486 303.064,349.346 303.467 C 349.123 304.111,349.170 304.103,349.733 303.400 C 350.476 302.473,350.567 302.000,350.000 302.000 C 349.780 302.000,349.600 302.165,349.600 302.367 M275.235 302.958 C 274.928 303.328,274.816 304.979,274.901 307.858 L 275.030 312.200 275.115 307.780 C 275.169 304.982,275.376 303.184,275.680 302.880 C 275.944 302.616,276.056 302.400,275.929 302.400 C 275.802 302.400,275.490 302.651,275.235 302.958 M78.953 307.400 C 78.953 310.040,79.018 311.068,79.097 309.684 C 79.175 308.301,79.174 306.141,79.095 304.884 C 79.016 303.628,78.952 304.760,78.953 307.400 M161.900 303.733 C 161.419 304.906,161.524 312.236,162.015 311.745 C 162.264 311.496,162.384 309.665,162.315 307.165 C 162.250 304.816,162.069 303.319,161.900 303.733 M278.314 306.738 C 278.492 312.115,278.674 312.623,278.740 307.924 C 278.773 305.572,278.665 303.564,278.500 303.462 C 278.335 303.360,278.251 304.834,278.314 306.738 M281.125 307.601 C 281.056 310.021,281.135 312.001,281.300 312.001 C 281.465 312.000,281.600 310.020,281.600 307.600 C 281.600 301.911,281.286 301.912,281.125 307.601 M134.914 305.400 C 134.917 306.500,134.995 306.903,135.087 306.295 C 135.179 305.686,135.177 304.786,135.082 304.295 C 134.987 303.803,134.911 304.300,134.914 305.400 M158.430 307.565 C 158.389 309.970,158.527 311.631,158.781 311.788 C 159.063 311.962,159.200 310.665,159.200 307.824 C 159.200 305.501,159.042 303.600,158.849 303.600 C 158.656 303.600,158.468 305.384,158.430 307.565 M189.879 304.157 C 189.715 304.574,189.675 305.009,189.791 305.124 C 190.155 305.489,190.476 304.891,190.324 304.131 C 190.183 303.435,190.162 303.436,189.879 304.157 M116.501 305.400 C 116.505 306.280,116.587 306.593,116.683 306.095 C 116.779 305.598,116.775 304.878,116.675 304.495 C 116.575 304.113,116.496 304.520,116.501 305.400 M298.501 305.400 C 298.505 306.280,298.587 306.593,298.683 306.095 C 298.779 305.598,298.775 304.878,298.675 304.495 C 298.575 304.113,298.496 304.520,298.501 305.400 M333.701 305.400 C 333.705 306.280,333.787 306.593,333.883 306.095 C 333.979 305.598,333.975 304.878,333.875 304.495 C 333.775 304.113,333.696 304.520,333.701 305.400 M70.400 308.200 C 70.400 310.467,70.561 312.000,70.800 312.000 C 71.039 312.000,71.200 310.467,71.200 308.200 C 71.200 305.933,71.039 304.400,70.800 304.400 C 70.561 304.400,70.400 305.933,70.400 308.200 M153.467 304.667 C 153.098 305.036,153.129 312.000,153.500 312.000 C 153.665 312.000,153.800 310.290,153.800 308.200 C 153.800 306.110,153.785 304.400,153.767 304.400 C 153.748 304.400,153.613 304.520,153.467 304.667 M258.133 305.600 C 258.133 306.260,258.283 306.800,258.467 306.800 C 258.650 306.800,258.800 306.260,258.800 305.600 C 258.800 304.940,258.650 304.400,258.467 304.400 C 258.283 304.400,258.133 304.940,258.133 305.600 M295.260 305.267 C 295.227 305.854,295.096 306.664,294.970 307.067 C 294.752 307.760,294.765 307.761,295.195 307.090 C 295.446 306.699,295.577 305.889,295.486 305.290 L 295.320 304.200 295.260 305.267 M323.206 305.433 C 323.209 305.855,323.395 306.470,323.618 306.800 C 323.915 307.238,323.952 307.076,323.756 306.200 C 323.427 304.729,323.198 304.410,323.206 305.433 M288.413 306.656 C 288.431 307.144,289.557 308.576,289.761 308.371 C 289.855 308.277,289.587 307.775,289.166 307.256 C 288.745 306.736,288.406 306.466,288.413 306.656 M111.023 308.633 C 110.374 309.107,110.354 309.200,110.900 309.200 C 111.259 309.200,111.671 309.008,111.816 308.773 C 112.240 308.087,111.861 308.020,111.023 308.633 M130.473 309.000 C 129.947 310.155,130.267 310.323,131.043 309.300 C 131.659 308.489,131.742 308.000,131.264 308.000 C 131.080 308.000,130.723 308.450,130.473 309.000 M139.692 308.475 C 139.891 309.073,140.800 309.402,140.800 308.876 C 140.800 308.661,140.515 308.376,140.167 308.243 C 139.777 308.093,139.594 308.182,139.692 308.475 M328.000 308.508 C 327.134 308.866,327.099 308.946,327.742 309.098 C 328.151 309.196,328.679 309.081,328.916 308.844 C 329.561 308.199,329.128 308.040,328.000 308.508 M180.979 308.766 C 181.103 308.967,180.979 309.212,180.702 309.311 C 180.426 309.410,180.345 309.645,180.522 309.834 C 180.699 310.022,181.011 309.912,181.216 309.588 C 181.708 308.809,181.695 308.400,181.176 308.400 C 180.943 308.400,180.855 308.565,180.979 308.766 M255.226 308.969 C 254.839 309.435,254.903 309.498,255.583 309.320 C 256.584 309.059,257.077 308.400,256.273 308.400 C 255.957 308.400,255.486 308.656,255.226 308.969 M292.600 308.800 C 292.464 309.020,292.623 309.200,292.953 309.200 C 293.283 309.200,293.664 309.020,293.800 308.800 C 293.936 308.580,293.777 308.400,293.447 308.400 C 293.117 308.400,292.736 308.580,292.600 308.800 M104.344 309.878 C 104.854 310.850,105.600 311.449,105.600 310.886 C 105.600 310.687,105.214 310.181,104.742 309.762 C 103.890 309.005,103.887 309.006,104.344 309.878 M137.170 310.532 C 138.189 311.654,138.408 311.793,138.387 311.300 C 138.381 311.135,137.886 310.654,137.287 310.232 L 136.200 309.464 137.170 310.532 M339.818 310.900 C 339.968 311.395,340.255 311.976,340.456 312.191 C 340.657 312.406,340.619 312.001,340.372 311.291 C 339.865 309.838,339.397 309.508,339.818 310.900 M208.883 311.216 C 208.593 311.680,208.164 311.913,207.887 311.757 C 207.523 311.552,207.526 311.619,207.899 312.020 C 208.381 312.540,209.548 311.628,209.587 310.700 C 209.608 310.214,209.425 310.349,208.883 311.216 M108.263 311.900 C 108.162 312.065,108.861 312.212,109.818 312.227 C 110.775 312.242,111.466 312.107,111.355 311.927 C 111.101 311.517,108.512 311.494,108.263 311.900 M124.250 311.919 C 124.142 312.094,124.743 312.229,125.587 312.219 C 126.430 312.208,127.038 312.065,126.937 311.900 C 126.691 311.500,124.500 311.515,124.250 311.919 M140.263 311.900 C 140.162 312.065,140.770 312.208,141.613 312.219 C 142.457 312.229,143.058 312.094,142.950 311.919 C 142.700 311.515,140.509 311.500,140.263 311.900 M253.678 311.811 C 254.096 312.230,256.852 312.408,256.600 312.001 C 256.464 311.780,255.703 311.600,254.910 311.600 C 254.116 311.600,253.562 311.695,253.678 311.811 M290.400 311.937 C 290.400 312.122,291.105 312.261,291.968 312.246 C 292.830 312.231,293.449 312.080,293.344 311.910 C 293.084 311.489,290.400 311.514,290.400 311.937 M325.463 311.900 C 325.362 312.065,326.068 312.222,327.032 312.250 C 327.996 312.277,328.688 312.142,328.569 311.950 C 328.305 311.523,325.720 311.482,325.463 311.900 " stroke="none" fill="#6f6f6f" fill-rule="evenodd"></path><path id="path5" d="M122.700 75.500 C 130.675 75.560,143.725 75.560,151.700 75.500 C 159.675 75.439,153.150 75.390,137.200 75.390 C 121.250 75.390,114.725 75.439,122.700 75.500 M238.500 75.476 C 238.885 75.576,239.515 75.576,239.900 75.476 C 240.285 75.375,239.970 75.293,239.200 75.293 C 238.430 75.293,238.115 75.375,238.500 75.476 M235.155 77.500 C 233.881 78.908,233.056 80.000,233.266 80.000 C 233.357 80.000,234.108 79.190,234.935 78.200 C 236.587 76.224,236.735 75.753,235.155 77.500 M105.334 81.200 C 105.334 82.850,105.405 83.525,105.491 82.700 C 105.578 81.875,105.578 80.525,105.491 79.700 C 105.405 78.875,105.334 79.550,105.334 81.200 M168.924 81.400 C 168.926 82.720,169.001 83.212,169.090 82.493 C 169.179 81.774,169.177 80.694,169.086 80.093 C 168.995 79.492,168.922 80.080,168.924 81.400 M247.200 81.800 C 248.617 83.230,249.867 84.400,249.977 84.400 C 250.087 84.400,249.017 83.230,247.600 81.800 C 246.183 80.370,244.933 79.200,244.823 79.200 C 244.713 79.200,245.783 80.370,247.200 81.800 M165.586 87.900 L 163.400 90.200 165.700 88.014 C 167.837 85.982,168.183 85.600,167.886 85.600 C 167.824 85.600,166.789 86.635,165.586 87.900 M119.300 87.100 C 124.965 87.162,134.235 87.162,139.900 87.100 C 145.565 87.037,140.930 86.986,129.600 86.986 C 118.270 86.986,113.635 87.037,119.300 87.100 M257.200 91.800 C 258.617 93.230,259.867 94.400,259.977 94.400 C 260.087 94.400,259.017 93.230,257.600 91.800 C 256.183 90.370,254.933 89.200,254.823 89.200 C 254.713 89.200,255.783 90.370,257.200 91.800 M156.591 96.900 L 153.400 100.200 156.700 97.009 C 159.765 94.046,160.182 93.600,159.891 93.600 C 159.830 93.600,158.345 95.085,156.591 96.900 M267.200 101.800 C 268.617 103.230,269.867 104.400,269.977 104.400 C 270.087 104.400,269.017 103.230,267.600 101.800 C 266.183 100.370,264.933 99.200,264.823 99.200 C 264.713 99.200,265.783 100.370,267.200 101.800 M94.900 100.700 C 102.545 100.761,115.055 100.761,122.700 100.700 C 130.345 100.639,124.090 100.589,108.800 100.589 C 93.510 100.589,87.255 100.639,94.900 100.700 M146.591 106.900 L 143.400 110.200 146.700 107.009 C 149.765 104.046,150.182 103.600,149.891 103.600 C 149.830 103.600,148.345 105.085,146.591 106.900 M76.909 106.400 C 76.909 107.390,76.987 107.795,77.082 107.300 C 77.178 106.805,77.178 105.995,77.082 105.500 C 76.987 105.005,76.909 105.410,76.909 106.400 M277.200 111.800 C 278.617 113.230,279.867 114.400,279.977 114.400 C 280.087 114.400,279.017 113.230,277.600 111.800 C 276.183 110.370,274.933 109.200,274.823 109.200 C 274.713 109.200,275.783 110.370,277.200 111.800 M91.500 112.300 C 97.715 112.362,107.885 112.362,114.100 112.300 C 120.315 112.238,115.230 112.187,102.800 112.187 C 90.370 112.187,85.285 112.238,91.500 112.300 M136.591 116.900 L 133.400 120.200 136.700 117.009 C 138.515 115.255,140.000 113.770,140.000 113.709 C 140.000 113.418,139.554 113.835,136.591 116.900 M287.200 121.800 C 288.617 123.230,289.867 124.400,289.977 124.400 C 290.087 124.400,289.017 123.230,287.600 121.800 C 286.183 120.370,284.933 119.200,284.823 119.200 C 284.713 119.200,285.783 120.370,287.200 121.800 M126.591 126.900 L 123.400 130.200 126.700 127.009 C 129.765 124.046,130.182 123.600,129.891 123.600 C 129.830 123.600,128.345 125.085,126.591 126.900 M294.400 128.800 C 294.400 129.062,302.989 129.200,319.367 129.200 C 333.099 129.200,344.664 129.314,345.067 129.454 C 345.711 129.677,345.703 129.630,345.000 129.067 C 344.042 128.299,294.400 128.038,294.400 128.800 M347.724 134.600 C 347.726 135.920,347.801 136.412,347.890 135.693 C 347.979 134.974,347.977 133.894,347.886 133.293 C 347.795 132.692,347.722 133.280,347.724 134.600 M53.720 135.200 C 53.720 136.410,53.795 136.905,53.887 136.300 C 53.978 135.695,53.978 134.705,53.887 134.100 C 53.795 133.495,53.720 133.990,53.720 135.200 M118.840 134.558 C 118.140 135.302,118.058 135.584,118.470 135.822 C 118.761 135.990,118.863 135.978,118.696 135.794 C 118.529 135.610,118.786 135.041,119.266 134.530 C 119.746 134.018,120.049 133.600,119.939 133.600 C 119.829 133.600,119.335 134.031,118.840 134.558 M258.199 159.681 C 244.339 173.585,234.090 183.956,235.422 182.727 C 240.713 177.846,283.980 134.400,283.550 134.400 C 283.466 134.400,272.058 145.776,258.199 159.681 M287.845 146.414 C 284.349 149.926,281.583 152.800,281.698 152.800 C 281.813 152.800,284.643 150.100,287.987 146.800 L 294.066 140.800 318.733 140.794 C 333.968 140.790,343.629 140.639,344.000 140.400 C 344.391 140.147,335.812 140.015,319.400 140.020 L 294.200 140.029 287.845 146.414 M107.420 141.525 C 107.629 141.704,109.960 143.903,112.600 146.411 L 117.400 150.971 112.606 146.085 C 109.970 143.398,107.639 141.200,107.426 141.200 C 107.183 141.200,107.181 141.321,107.420 141.525 M118.013 151.681 C 118.496 152.408,127.508 161.379,127.202 160.828 C 127.010 160.483,124.822 158.220,122.340 155.800 C 119.857 153.380,117.910 151.527,118.013 151.681 M278.800 155.400 L 276.627 157.600 298.814 157.505 L 321.000 157.410 299.234 157.205 L 277.469 157.000 279.615 155.100 C 280.795 154.055,281.583 153.200,281.367 153.200 C 281.150 153.200,279.995 154.190,278.800 155.400 M324.524 163.400 C 324.526 164.720,324.601 165.212,324.690 164.493 C 324.779 163.774,324.777 162.694,324.686 162.093 C 324.595 161.492,324.522 162.080,324.524 163.400 M128.456 162.300 C 128.486 162.465,130.601 164.577,133.156 166.994 L 137.800 171.387 133.207 166.694 C 128.571 161.957,128.355 161.757,128.456 162.300 M323.072 167.900 C 322.420 168.551,320.399 168.607,293.923 168.708 L 265.475 168.816 259.712 174.508 C 256.542 177.639,253.790 180.483,253.597 180.830 C 253.405 181.176,256.012 178.705,259.393 175.338 L 265.538 169.216 293.958 169.108 L 322.378 169.000 323.278 168.100 C 323.773 167.605,324.086 167.200,323.975 167.200 C 323.863 167.200,323.456 167.515,323.072 167.900 M138.446 172.500 C 138.545 172.555,140.600 174.490,143.013 176.800 L 147.400 181.000 143.207 176.700 C 140.901 174.335,138.846 172.400,138.640 172.400 C 138.435 172.400,138.347 172.445,138.446 172.500 M251.900 182.433 C 251.211 183.188,251.529 183.199,272.500 183.104 L 293.800 183.007 273.114 182.900 C 254.975 182.806,252.456 182.719,252.657 182.196 C 252.952 181.427,252.765 181.485,251.900 182.433 M152.600 186.400 C 155.012 188.820,157.076 190.800,157.186 190.800 C 157.296 190.800,155.412 188.820,153.000 186.400 C 150.588 183.980,148.524 182.000,148.414 182.000 C 148.304 182.000,150.188 183.980,152.600 186.400 M296.079 188.267 C 296.036 189.844,295.896 191.464,295.770 191.867 C 295.556 192.548,295.571 192.551,295.987 191.904 C 296.250 191.496,296.378 190.008,296.297 188.304 L 296.159 185.400 296.079 188.267 M157.200 191.339 C 157.200 191.446,157.965 192.129,158.900 192.859 C 159.835 193.588,160.346 193.865,160.036 193.474 C 159.419 192.697,157.200 191.027,157.200 191.339 M250.729 194.700 C 258.500 194.761,271.100 194.761,278.729 194.700 C 286.358 194.639,280.000 194.589,264.600 194.589 C 249.200 194.589,242.958 194.639,250.729 194.700 M6.270 216.263 C 6.122 216.412,6.000 218.843,6.000 221.667 L 6.000 226.800 14.200 226.800 L 22.400 226.800 22.400 249.800 L 22.400 272.800 28.000 272.800 L 33.600 272.800 33.600 249.800 L 33.600 226.800 41.612 226.800 L 49.623 226.800 49.512 221.500 L 49.400 216.200 27.970 216.097 C 16.184 216.040,6.419 216.115,6.270 216.263 M103.700 216.299 L 108.400 216.425 108.440 237.113 C 108.462 248.491,108.639 258.250,108.834 258.800 C 109.138 259.655,109.161 259.604,108.995 258.450 C 108.888 257.707,108.800 247.853,108.800 236.550 L 108.800 216.000 103.900 216.086 L 99.000 216.172 103.700 216.299 M211.600 221.400 L 211.600 226.800 219.900 226.709 L 228.200 226.618 220.100 226.500 L 212.000 226.383 212.000 221.395 L 212.000 216.407 233.500 216.300 L 255.000 216.193 233.300 216.096 L 211.600 216.000 211.600 221.400 M351.867 216.267 C 351.720 216.413,351.600 229.199,351.600 244.679 L 351.600 272.824 356.700 272.712 L 361.800 272.600 361.906 259.428 C 361.964 252.183,361.911 246.355,361.789 246.477 C 361.667 246.599,361.530 252.416,361.484 259.403 L 361.400 272.107 357.000 272.065 C 354.580 272.042,352.464 272.018,352.297 272.012 C 352.131 272.005,352.041 259.535,352.097 244.300 L 352.200 216.600 356.800 216.600 L 361.400 216.600 361.600 225.127 L 361.800 233.654 363.000 232.329 C 364.106 231.107,364.114 231.079,363.100 231.971 L 362.000 232.939 362.000 225.102 C 362.000 220.792,361.891 216.981,361.757 216.633 C 361.505 215.976,352.491 215.642,351.867 216.267 M49.200 221.400 L 49.200 226.400 41.203 226.400 L 33.207 226.400 33.103 249.228 L 33.000 272.055 28.000 272.055 L 23.000 272.055 22.897 249.228 L 22.793 226.400 14.597 226.400 L 6.400 226.400 6.400 221.400 L 6.400 216.400 27.800 216.400 L 49.200 216.400 49.200 221.400 M238.400 249.300 L 238.400 272.200 233.000 272.129 C 229.899 272.089,227.600 272.216,227.600 272.429 C 227.600 272.639,230.027 272.800,233.200 272.800 L 238.800 272.800 238.800 249.808 L 238.800 226.817 246.900 226.700 L 255.000 226.582 246.700 226.491 L 238.400 226.400 238.400 249.300 M139.800 228.000 C 139.936 228.220,141.196 228.400,142.600 228.400 C 144.004 228.400,145.264 228.220,145.400 228.000 C 145.557 227.747,144.530 227.600,142.600 227.600 C 140.670 227.600,139.643 227.747,139.800 228.000 M270.800 228.000 C 270.800 228.225,271.925 228.400,273.376 228.400 C 274.793 228.400,276.064 228.220,276.200 228.000 C 276.356 227.748,275.404 227.600,273.624 227.600 C 272.008 227.600,270.800 227.771,270.800 228.000 M322.200 228.000 C 322.336 228.220,323.596 228.400,325.000 228.400 C 326.404 228.400,327.664 228.220,327.800 228.000 C 327.957 227.747,326.930 227.600,325.000 227.600 C 323.070 227.600,322.043 227.747,322.200 228.000 M372.000 228.000 C 372.000 228.220,372.979 228.400,374.176 228.400 C 375.373 228.400,376.464 228.220,376.600 228.000 C 376.754 227.750,375.937 227.600,374.424 227.600 C 373.075 227.600,372.000 227.777,372.000 228.000 M134.089 229.065 C 133.368 229.420,132.837 229.770,132.909 229.842 C 133.155 230.089,136.000 229.067,136.000 228.733 C 136.000 228.257,135.579 228.330,134.089 229.065 M266.000 228.800 C 266.000 229.020,266.270 229.200,266.600 229.200 C 266.930 229.200,267.200 229.020,267.200 228.800 C 267.200 228.580,266.930 228.400,266.600 228.400 C 266.270 228.400,266.000 228.580,266.000 228.800 M317.600 228.800 C 317.600 229.020,317.870 229.200,318.200 229.200 C 318.530 229.200,318.800 229.020,318.800 228.800 C 318.800 228.580,318.530 228.400,318.200 228.400 C 317.870 228.400,317.600 228.580,317.600 228.800 M331.200 228.800 C 331.200 229.020,331.455 229.200,331.767 229.200 C 332.079 229.200,332.664 229.305,333.067 229.433 C 333.738 229.646,333.734 229.612,333.024 229.033 C 332.148 228.319,331.200 228.198,331.200 228.800 M48.267 229.067 C 48.120 229.213,48.003 235.738,48.006 243.567 C 48.010 252.904,48.146 257.594,48.400 257.200 C 48.630 256.843,48.790 251.125,48.794 243.100 L 48.800 229.600 53.400 229.600 C 56.200 229.600,58.000 229.443,58.000 229.200 C 58.000 228.754,48.707 228.626,48.267 229.067 M78.100 229.059 C 77.461 229.324,77.362 254.400,78.000 254.400 C 78.258 254.400,78.400 250.000,78.400 242.000 L 78.400 229.600 82.997 229.600 L 87.593 229.600 87.702 251.100 L 87.811 272.600 87.805 250.800 L 87.800 229.000 83.200 228.925 C 80.670 228.884,78.375 228.944,78.100 229.059 M169.407 229.189 C 169.237 229.463,171.177 229.600,175.232 229.600 C 180.532 229.600,181.387 229.690,181.900 230.300 C 182.409 230.906,182.408 230.866,181.896 230.000 C 181.249 228.908,170.031 228.180,169.407 229.189 M198.082 229.300 C 197.752 229.697,198.814 229.775,203.233 229.679 C 206.295 229.612,208.800 229.669,208.800 229.805 C 208.800 229.941,208.610 230.446,208.378 230.926 C 207.970 231.770,207.977 231.774,208.578 231.024 C 210.162 229.047,209.637 228.800,203.849 228.800 C 200.057 228.800,198.377 228.946,198.082 229.300 M315.800 229.467 C 315.097 230.030,315.089 230.077,315.733 229.854 C 316.136 229.714,316.631 229.600,316.833 229.600 C 317.035 229.600,317.200 229.420,317.200 229.200 C 317.200 228.633,316.727 228.724,315.800 229.467 M366.389 229.658 C 365.673 230.234,365.620 230.351,366.200 230.081 C 366.640 229.876,367.261 229.627,367.580 229.527 C 367.906 229.426,367.989 229.240,367.769 229.105 C 367.554 228.971,366.933 229.221,366.389 229.658 M334.033 229.749 C 334.445 230.117,336.800 231.200,336.800 231.021 C 336.800 230.790,334.582 229.600,334.153 229.600 C 333.996 229.600,333.942 229.667,334.033 229.749 M384.800 231.725 C 384.800 231.794,385.385 232.379,386.100 233.025 L 387.400 234.200 386.225 232.900 C 385.130 231.688,384.800 231.416,384.800 231.725 M308.167 234.232 C 306.879 235.408,306.820 235.519,307.836 234.850 C 309.009 234.078,310.306 232.800,309.916 232.800 C 309.815 232.800,309.028 233.444,308.167 234.232 M125.375 234.500 L 124.200 235.800 125.500 234.625 C 126.712 233.530,126.984 233.200,126.675 233.200 C 126.606 233.200,126.021 233.785,125.375 234.500 M123.302 236.900 C 122.736 237.615,121.940 239.200,122.146 239.200 C 122.242 239.200,122.693 238.570,123.147 237.800 C 123.973 236.401,124.049 235.957,123.302 236.900 M276.976 237.609 C 278.063 238.033,279.016 238.318,279.093 238.240 C 279.284 238.050,276.107 236.795,275.492 236.819 C 275.221 236.829,275.889 237.185,276.976 237.609 M323.491 237.489 C 324.201 237.577,325.461 237.579,326.291 237.492 C 327.121 237.405,326.540 237.333,325.000 237.331 C 323.460 237.329,322.781 237.400,323.491 237.489 M370.300 237.889 C 371.015 237.978,372.185 237.978,372.900 237.889 C 373.615 237.801,373.030 237.728,371.600 237.728 C 370.170 237.728,369.585 237.801,370.300 237.889 M389.228 237.824 C 389.292 238.675,389.878 239.720,390.096 239.369 C 390.224 239.161,390.075 238.644,389.765 238.219 C 389.454 237.795,389.213 237.616,389.228 237.824 M378.562 240.342 C 379.409 241.295,379.600 241.382,379.600 240.814 C 379.600 240.602,379.195 240.216,378.700 239.956 C 377.805 239.486,377.804 239.488,378.562 240.342 M131.037 243.000 C 130.676 243.550,130.537 244.000,130.727 244.000 C 130.916 244.000,131.277 243.550,131.527 243.000 C 131.778 242.450,131.917 242.000,131.837 242.000 C 131.757 242.000,131.397 242.450,131.037 243.000 M302.051 244.562 C 301.803 245.548,301.614 246.770,301.632 247.277 C 301.649 247.785,301.915 247.041,302.222 245.624 C 302.861 242.676,302.731 241.864,302.051 244.562 M391.100 244.533 C 390.935 244.936,390.800 251.326,390.800 258.733 L 390.800 272.200 386.500 272.114 C 384.135 272.067,382.067 272.022,381.905 272.014 C 381.743 272.007,381.561 265.925,381.500 258.500 L 381.389 245.000 381.294 258.900 L 381.200 272.800 386.213 272.800 C 389.866 272.800,391.277 272.664,391.418 272.298 C 391.740 271.459,391.422 243.745,391.100 244.533 M261.303 245.200 C 261.443 245.715,263.074 245.801,272.833 245.810 L 284.200 245.820 273.020 245.703 C 264.721 245.617,261.749 245.460,261.489 245.094 C 261.234 244.734,261.183 244.762,261.303 245.200 M129.600 245.900 C 129.599 246.065,133.064 246.154,137.300 246.098 C 151.695 245.907,153.027 245.769,141.300 245.684 C 134.865 245.638,129.600 245.735,129.600 245.900 M119.012 246.917 C 118.841 247.312,118.813 247.747,118.951 247.884 C 119.357 248.290,119.684 247.720,119.497 246.931 C 119.332 246.233,119.310 246.232,119.012 246.917 M250.144 250.800 C 250.144 252.890,250.212 253.745,250.294 252.700 C 250.376 251.655,250.376 249.945,250.294 248.900 C 250.212 247.855,250.144 248.710,250.144 250.800 M164.800 250.800 L 164.800 254.000 147.200 254.000 L 129.600 254.000 129.600 255.000 C 129.600 255.550,129.801 256.000,130.047 256.000 C 130.296 256.000,130.401 255.647,130.284 255.200 C 130.077 254.409,130.272 254.400,147.637 254.400 L 165.200 254.400 165.200 251.000 C 165.200 249.130,165.110 247.600,165.000 247.600 C 164.890 247.600,164.800 249.040,164.800 250.800 M301.320 250.800 C 301.320 252.010,301.395 252.505,301.487 251.900 C 301.578 251.295,301.578 250.305,301.487 249.700 C 301.395 249.095,301.320 249.590,301.320 250.800 M296.000 251.800 L 296.000 254.000 278.200 254.000 C 260.667 254.000,260.400 254.012,260.400 254.800 C 260.400 255.240,260.580 255.600,260.800 255.600 C 261.020 255.600,261.200 255.330,261.200 255.000 C 261.200 254.476,263.422 254.400,278.800 254.400 L 296.400 254.400 296.400 252.000 C 296.400 250.680,296.310 249.600,296.200 249.600 C 296.090 249.600,296.000 250.590,296.000 251.800 M118.800 254.176 C 118.800 254.493,118.980 254.864,119.200 255.000 C 119.420 255.136,119.600 254.877,119.600 254.424 C 119.600 253.971,119.420 253.600,119.200 253.600 C 118.980 253.600,118.800 253.859,118.800 254.176 M301.693 254.800 C 301.693 255.570,301.775 255.885,301.876 255.500 C 301.976 255.115,301.976 254.485,301.876 254.100 C 301.775 253.715,301.693 254.030,301.693 254.800 M335.600 257.957 C 335.600 258.153,334.773 259.278,333.762 260.457 C 331.936 262.584,331.939 262.583,334.138 260.262 C 335.536 258.785,336.531 258.034,336.838 258.223 C 337.147 258.415,337.220 258.356,337.038 258.062 C 336.703 257.519,335.600 257.439,335.600 257.957 M99.169 258.633 C 99.153 258.835,99.089 259.270,99.029 259.600 C 98.969 259.930,99.156 260.740,99.445 261.400 C 99.946 262.544,99.959 262.507,99.729 260.600 C 99.503 258.727,99.239 257.800,99.169 258.633 M152.181 260.900 L 150.600 262.600 152.300 261.019 C 153.881 259.548,154.184 259.200,153.881 259.200 C 153.816 259.200,153.051 259.965,152.181 260.900 M157.200 259.779 C 157.200 259.889,157.740 260.259,158.400 260.600 C 159.060 260.941,159.600 261.131,159.600 261.021 C 159.600 260.911,159.060 260.541,158.400 260.200 C 157.740 259.859,157.200 259.669,157.200 259.779 M251.628 259.800 C 251.628 260.020,251.886 260.650,252.200 261.200 C 252.514 261.750,252.772 262.020,252.772 261.800 C 252.772 261.580,252.514 260.950,252.200 260.400 C 251.886 259.850,251.628 259.580,251.628 259.800 M339.200 259.784 C 339.200 259.894,339.920 260.351,340.800 260.800 C 341.680 261.249,342.400 261.526,342.400 261.416 C 342.400 261.306,341.680 260.849,340.800 260.400 C 339.920 259.951,339.200 259.674,339.200 259.784 M120.828 260.200 C 120.828 260.420,121.086 261.050,121.400 261.600 C 121.714 262.150,121.972 262.420,121.972 262.200 C 121.972 261.980,121.714 261.350,121.400 260.800 C 121.086 260.250,120.828 259.980,120.828 260.200 M110.800 261.885 C 110.800 262.234,112.399 263.338,112.600 263.128 C 112.667 263.057,112.289 262.677,111.761 262.281 C 111.232 261.886,110.800 261.708,110.800 261.885 M61.944 262.776 C 62.464 263.229,63.079 263.600,63.311 263.600 C 63.803 263.600,63.779 263.580,62.200 262.655 L 61.000 261.953 61.944 262.776 M321.600 264.016 C 322.599 264.320,327.882 264.530,327.567 264.254 C 327.475 264.173,325.870 264.018,324.000 263.910 C 322.130 263.801,321.050 263.849,321.600 264.016 M66.700 264.289 C 67.415 264.378,68.585 264.378,69.300 264.289 C 70.015 264.201,69.430 264.128,68.000 264.128 C 66.570 264.128,65.985 264.201,66.700 264.289 M276.400 264.400 C 275.596 264.657,275.557 264.723,276.200 264.732 C 276.640 264.738,277.360 264.589,277.800 264.400 C 278.819 263.962,277.768 263.962,276.400 264.400 M306.800 266.161 C 307.996 267.497,310.528 269.378,309.638 268.269 C 309.330 267.885,308.340 267.002,307.438 266.307 C 305.858 265.089,305.835 265.083,306.800 266.161 M341.478 266.613 C 340.860 267.156,340.514 267.600,340.708 267.600 C 340.902 267.600,341.483 267.150,342.000 266.600 C 343.195 265.328,342.931 265.334,341.478 266.613 M102.800 267.400 C 103.546 268.170,104.247 268.800,104.357 268.800 C 104.467 268.800,103.946 268.170,103.200 267.400 C 102.454 266.630,101.753 266.000,101.643 266.000 C 101.533 266.000,102.054 266.630,102.800 267.400 M124.400 266.125 C 124.400 266.194,124.985 266.779,125.700 267.425 L 127.000 268.600 125.825 267.300 C 124.730 266.088,124.400 265.816,124.400 266.125 M77.545 269.081 C 77.170 269.544,77.156 269.660,77.500 269.453 C 77.848 269.244,78.000 269.464,78.000 270.176 C 78.000 270.739,78.180 271.200,78.400 271.200 C 78.894 271.200,78.934 268.930,78.445 268.628 C 78.250 268.507,77.845 268.711,77.545 269.081 M209.600 271.876 C 209.600 272.054,206.806 272.165,203.391 272.123 C 199.583 272.075,197.271 272.192,197.414 272.423 C 197.717 272.913,209.880 272.918,210.183 272.428 C 210.309 272.223,210.230 271.942,210.007 271.804 C 209.783 271.666,209.600 271.698,209.600 271.876 M168.633 272.453 C 168.751 272.644,171.367 272.800,174.447 272.800 C 178.233 272.800,179.964 272.665,179.789 272.383 C 179.627 272.120,177.477 271.991,173.975 272.036 C 170.919 272.074,168.515 272.262,168.633 272.453 M110.400 272.619 C 110.400 272.913,112.849 274.050,113.209 273.924 C 113.404 273.856,112.851 273.498,111.982 273.130 C 111.112 272.761,110.400 272.531,110.400 272.619 M64.500 273.891 C 65.325 273.978,66.675 273.978,67.500 273.891 C 68.325 273.805,67.650 273.734,66.000 273.734 C 64.350 273.734,63.675 273.805,64.500 273.891 M141.111 273.893 C 142.051 273.978,143.491 273.977,144.311 273.891 C 145.130 273.805,144.360 273.736,142.600 273.737 C 140.840 273.739,140.170 273.809,141.111 273.893 M271.911 273.893 C 272.851 273.978,274.291 273.977,275.111 273.891 C 275.930 273.805,275.160 273.736,273.400 273.737 C 271.640 273.739,270.970 273.809,271.911 273.893 M323.511 273.893 C 324.451 273.978,325.891 273.977,326.711 273.891 C 327.530 273.805,326.760 273.736,325.000 273.737 C 323.240 273.739,322.570 273.809,323.511 273.893 M60.800 278.754 C 60.800 279.083,62.809 280.124,63.026 279.907 C 63.093 279.840,62.620 279.482,61.974 279.111 C 61.328 278.740,60.800 278.580,60.800 278.754 M51.800 284.000 C 52.883 285.100,53.860 286.000,53.970 286.000 C 54.080 286.000,53.283 285.100,52.200 284.000 C 51.117 282.900,50.140 282.000,50.030 282.000 C 49.920 282.000,50.717 282.900,51.800 284.000 M67.600 289.581 C 64.634 289.711,62.909 289.926,63.360 290.110 C 64.573 290.606,71.209 290.360,72.566 289.768 C 73.245 289.473,73.530 289.261,73.200 289.297 C 72.870 289.333,70.350 289.461,67.600 289.581 M63.369 303.600 C 63.369 308.110,63.427 309.955,63.498 307.700 C 63.570 305.445,63.570 301.755,63.498 299.500 C 63.427 297.245,63.369 299.090,63.369 303.600 M59.768 304.200 C 59.768 308.600,59.826 310.455,59.898 308.321 C 59.970 306.188,59.970 302.588,59.899 300.321 C 59.827 298.055,59.768 299.800,59.768 304.200 M92.690 299.095 L 94.780 299.241 94.901 305.721 L 95.021 312.200 95.111 305.500 L 95.200 298.800 92.900 298.874 L 90.600 298.948 92.690 299.095 M99.500 299.089 C 100.215 299.178,101.385 299.178,102.100 299.089 C 102.815 299.001,102.230 298.928,100.800 298.928 C 99.370 298.928,98.785 299.001,99.500 299.089 M238.188 299.087 L 240.380 299.239 240.506 305.620 L 240.631 312.001 240.615 305.500 L 240.600 299.000 238.298 298.967 L 235.996 298.934 238.188 299.087 M245.107 299.090 C 245.826 299.179,246.906 299.177,247.507 299.086 C 248.108 298.995,247.520 298.922,246.200 298.924 C 244.880 298.926,244.388 299.001,245.107 299.090 M302.163 305.600 C 302.163 309.230,302.223 310.715,302.298 308.900 C 302.372 307.085,302.372 304.115,302.298 302.300 C 302.223 300.485,302.163 301.970,302.163 305.600 M98.562 305.800 C 98.562 309.320,98.624 310.706,98.698 308.881 C 98.772 307.056,98.772 304.176,98.697 302.481 C 98.622 300.786,98.561 302.280,98.562 305.800 M120.150 303.800 C 120.151 306.220,120.216 307.158,120.296 305.885 C 120.376 304.612,120.375 302.632,120.294 301.485 C 120.214 300.338,120.149 301.380,120.150 303.800 M123.344 303.200 C 123.344 305.290,123.412 306.145,123.494 305.100 C 123.576 304.055,123.576 302.345,123.494 301.300 C 123.412 300.255,123.344 301.110,123.344 303.200 M196.561 305.600 C 196.561 309.010,196.622 310.405,196.697 308.700 C 196.772 306.995,196.772 304.205,196.697 302.500 C 196.622 300.795,196.561 302.190,196.561 305.600 M202.909 301.200 C 202.909 302.190,202.987 302.595,203.082 302.100 C 203.178 301.605,203.178 300.795,203.082 300.300 C 202.987 299.805,202.909 300.210,202.909 301.200 M311.762 305.800 C 311.762 309.320,311.824 310.706,311.898 308.881 C 311.972 307.056,311.972 304.176,311.897 302.481 C 311.822 300.786,311.761 302.280,311.762 305.800 M281.750 307.400 C 281.751 309.820,281.816 310.758,281.896 309.485 C 281.976 308.212,281.975 306.232,281.894 305.085 C 281.814 303.938,281.749 304.980,281.750 307.400 M271.750 307.800 C 271.751 310.220,271.816 311.158,271.896 309.885 C 271.976 308.612,271.975 306.632,271.894 305.485 C 271.814 304.338,271.749 305.380,271.750 307.800 M305.350 307.800 C 305.351 310.220,305.416 311.158,305.496 309.885 C 305.576 308.612,305.575 306.632,305.494 305.485 C 305.414 304.338,305.349 305.380,305.350 307.800 M314.950 307.800 C 314.951 310.220,315.016 311.158,315.096 309.885 C 315.176 308.612,315.175 306.632,315.094 305.485 C 315.014 304.338,314.949 305.380,314.950 307.800 M75.744 307.600 C 75.744 309.690,75.812 310.545,75.894 309.500 C 75.976 308.455,75.976 306.745,75.894 305.700 C 75.812 304.655,75.744 305.510,75.744 307.600 M278.146 307.800 C 278.147 310.000,278.214 310.849,278.295 309.687 C 278.376 308.524,278.376 306.724,278.293 305.687 C 278.211 304.649,278.145 305.600,278.146 307.800 M102.893 305.600 C 102.893 306.370,102.975 306.685,103.076 306.300 C 103.176 305.915,103.176 305.285,103.076 304.900 C 102.975 304.515,102.893 304.830,102.893 305.600 M320.093 305.600 C 320.093 306.370,320.175 306.685,320.276 306.300 C 320.376 305.915,320.376 305.285,320.276 304.900 C 320.175 304.515,320.093 304.830,320.093 305.600 " stroke="none" fill="#f8b872" fill-rule="evenodd"></path><path id="path6" d="M123.300 75.900 C 130.945 75.961,143.455 75.961,151.100 75.900 C 158.745 75.839,152.490 75.789,137.200 75.789 C 121.910 75.789,115.655 75.839,123.300 75.900 M105.714 81.000 C 105.717 82.100,105.795 82.503,105.887 81.895 C 105.979 81.286,105.977 80.386,105.882 79.895 C 105.787 79.403,105.711 79.900,105.714 81.000 M143.196 93.882 C 139.348 97.777,136.624 100.612,137.143 100.182 C 137.661 99.752,140.811 96.646,144.143 93.280 C 151.209 86.141,150.577 86.800,150.362 86.800 C 150.268 86.800,147.043 89.987,143.196 93.882 M151.600 101.800 C 150.628 102.790,149.923 103.600,150.033 103.600 C 150.143 103.600,151.028 102.790,152.000 101.800 C 152.972 100.810,153.677 100.000,153.567 100.000 C 153.457 100.000,152.572 100.810,151.600 101.800 M228.559 108.400 C 228.559 111.590,228.621 112.895,228.697 111.300 C 228.773 109.705,228.773 107.095,228.697 105.500 C 228.621 103.905,228.559 105.210,228.559 108.400 M77.314 106.200 C 77.317 107.300,77.395 107.703,77.487 107.095 C 77.579 106.486,77.577 105.586,77.482 105.095 C 77.387 104.603,77.311 105.100,77.314 106.200 M91.928 111.900 C 98.159 111.962,108.239 111.962,114.328 111.900 C 120.418 111.838,115.320 111.787,103.000 111.787 C 90.680 111.787,85.698 111.838,91.928 111.900 M116.000 121.000 C 111.274 125.730,107.506 129.600,107.627 129.600 C 107.747 129.600,111.616 125.814,116.223 121.186 C 125.701 111.666,124.988 112.400,124.763 112.400 C 124.670 112.400,120.726 116.270,116.000 121.000 M207.790 144.600 C 207.790 160.880,207.839 167.482,207.900 159.270 C 207.960 151.059,207.960 137.739,207.900 129.670 C 207.839 121.602,207.790 128.320,207.790 144.600 M120.000 137.384 C 120.000 137.563,120.450 138.125,121.000 138.635 C 121.550 139.145,122.000 139.422,122.000 139.251 C 122.000 139.079,121.550 138.517,121.000 138.000 C 120.450 137.483,120.000 137.206,120.000 137.384 M58.000 140.800 C 58.000 141.062,66.556 141.200,82.869 141.200 C 102.149 141.200,107.883 141.312,108.388 141.700 C 108.746 141.975,108.615 141.795,108.097 141.300 L 107.155 140.400 82.578 140.400 C 66.459 140.400,58.000 140.538,58.000 140.800 M130.017 147.383 C 130.925 148.602,132.050 149.683,132.227 149.506 C 132.316 149.418,131.724 148.728,130.911 147.973 C 130.099 147.218,129.697 146.952,130.017 147.383 M116.747 150.224 C 117.190 150.787,118.058 151.631,118.676 152.099 C 119.294 152.568,118.990 152.109,118.000 151.079 C 115.997 148.995,115.530 148.676,116.747 150.224 M140.000 157.272 C 140.000 157.388,140.450 157.969,141.000 158.562 C 141.550 159.156,142.000 159.483,142.000 159.290 C 142.000 159.097,141.550 158.517,141.000 158.000 C 140.450 157.483,140.000 157.156,140.000 157.272 M126.984 160.520 C 127.316 161.026,128.175 161.865,128.894 162.384 C 129.964 163.158,129.875 162.992,128.400 161.467 C 126.370 159.368,126.120 159.201,126.984 160.520 M150.000 167.272 C 150.000 167.388,150.450 167.969,151.000 168.562 C 151.550 169.156,152.000 169.483,152.000 169.290 C 152.000 169.097,151.550 168.517,151.000 168.000 C 150.450 167.483,150.000 167.156,150.000 167.272 M137.543 171.100 C 138.044 171.815,138.539 172.400,138.641 172.400 C 138.987 172.400,138.050 170.940,137.337 170.367 C 136.836 169.965,136.896 170.178,137.543 171.100 M154.000 171.400 C 154.746 172.170,155.447 172.800,155.557 172.800 C 155.667 172.800,155.146 172.170,154.400 171.400 C 153.654 170.630,152.953 170.000,152.843 170.000 C 152.733 170.000,153.254 170.630,154.000 171.400 M160.000 177.272 C 160.000 177.388,160.450 177.969,161.000 178.562 C 161.550 179.156,162.000 179.483,162.000 179.290 C 162.000 179.097,161.550 178.517,161.000 178.000 C 160.450 177.483,160.000 177.156,160.000 177.272 M147.200 180.689 C 147.200 181.192,148.343 182.190,148.612 181.921 C 148.718 181.815,148.444 181.402,148.002 181.002 C 147.561 180.603,147.200 180.462,147.200 180.689 M157.399 191.198 C 157.534 191.417,158.040 191.803,158.522 192.056 C 159.394 192.513,159.395 192.510,158.638 191.658 C 157.875 190.798,156.936 190.450,157.399 191.198 M216.109 298.000 C 216.109 298.990,216.187 299.395,216.282 298.900 C 216.378 298.405,216.378 297.595,216.282 297.100 C 216.187 296.605,216.109 297.010,216.109 298.000 M153.709 298.400 C 153.709 299.390,153.787 299.795,153.882 299.300 C 153.978 298.805,153.978 297.995,153.882 297.500 C 153.787 297.005,153.709 297.410,153.709 298.400 M224.548 307.600 C 224.548 309.910,224.614 310.855,224.695 309.700 C 224.776 308.545,224.776 306.655,224.695 305.500 C 224.614 304.345,224.548 305.290,224.548 307.600 M221.344 307.600 C 221.344 309.690,221.412 310.545,221.494 309.500 C 221.576 308.455,221.576 306.745,221.494 305.700 C 221.412 304.655,221.344 305.510,221.344 307.600 M268.144 307.600 C 268.144 309.690,268.212 310.545,268.294 309.500 C 268.376 308.455,268.376 306.745,268.294 305.700 C 268.212 304.655,268.144 305.510,268.144 307.600 M153.740 308.000 C 153.740 309.870,153.809 310.635,153.893 309.700 C 153.977 308.765,153.977 307.235,153.893 306.300 C 153.809 305.365,153.740 306.130,153.740 308.000 M216.137 308.200 C 216.139 309.960,216.209 310.630,216.293 309.689 C 216.378 308.749,216.377 307.309,216.291 306.489 C 216.205 305.670,216.136 306.440,216.137 308.200 " stroke="none" fill="#cc6454" fill-rule="evenodd"></path><path id="path7" d="M17.500 216.700 C 23.275 216.762,32.725 216.762,38.500 216.700 C 44.275 216.637,39.550 216.586,28.000 216.586 C 16.450 216.586,11.725 216.637,17.500 216.700 M101.900 216.695 C 103.055 216.776,104.945 216.776,106.100 216.695 C 107.255 216.614,106.310 216.548,104.000 216.548 C 101.690 216.548,100.745 216.614,101.900 216.695 M222.472 216.700 C 228.341 216.762,238.061 216.762,244.072 216.700 C 250.082 216.638,245.280 216.587,233.400 216.586 C 221.520 216.586,216.602 216.637,222.472 216.700 M354.500 216.696 C 355.765 216.775,357.835 216.775,359.100 216.696 C 360.365 216.616,359.330 216.551,356.800 216.551 C 354.270 216.551,353.235 216.616,354.500 216.696 M227.787 249.000 C 227.787 261.320,227.838 266.418,227.900 260.328 C 227.962 254.239,227.962 244.159,227.900 237.928 C 227.838 231.698,227.787 236.680,227.787 249.000 M320.000 228.400 C 320.000 228.620,320.270 228.800,320.600 228.800 C 320.930 228.800,321.200 228.620,321.200 228.400 C 321.200 228.180,320.930 228.000,320.600 228.000 C 320.270 228.000,320.000 228.180,320.000 228.400 M139.905 236.683 C 140.402 236.779,141.122 236.775,141.505 236.675 C 141.887 236.575,141.480 236.496,140.600 236.501 C 139.720 236.505,139.407 236.587,139.905 236.683 M133.179 239.822 C 132.651 240.384,132.488 240.741,132.818 240.614 C 133.339 240.415,134.634 238.800,134.273 238.800 C 134.200 238.800,133.707 239.260,133.179 239.822 M153.693 270.580 C 152.398 271.295,152.191 271.580,153.147 271.330 C 153.602 271.211,154.182 270.863,154.436 270.557 C 154.975 269.907,154.907 269.909,153.693 270.580 " stroke="none" fill="#fcb458" fill-rule="evenodd"></path><path id="path8" d="M238.200 89.135 C 239.960 90.930,241.571 92.399,241.781 92.399 C 242.263 92.400,238.261 88.330,236.400 86.927 C 235.630 86.346,236.440 87.340,238.200 89.135 M248.389 99.329 C 250.032 101.018,251.535 102.400,251.728 102.400 C 252.194 102.400,248.572 98.666,246.800 97.321 C 246.030 96.736,246.745 97.640,248.389 99.329 M258.800 109.719 C 260.230 111.185,261.572 112.388,261.783 112.392 C 262.284 112.402,258.947 108.978,257.400 107.895 C 256.740 107.432,257.370 108.253,258.800 109.719 M269.987 120.929 C 272.070 123.058,273.853 124.800,273.949 124.800 C 274.418 124.800,268.751 118.816,267.401 117.885 C 266.740 117.430,267.904 118.800,269.987 120.929 M276.800 127.419 C 276.800 127.631,278.189 129.153,279.888 130.802 C 281.748 132.608,282.476 133.164,281.721 132.200 C 280.088 130.118,276.800 126.923,276.800 127.419 M283.337 134.270 C 283.486 134.419,283.201 135.004,282.704 135.570 L 281.800 136.600 282.888 135.642 C 283.839 134.804,284.045 134.000,283.310 134.000 C 283.176 134.000,283.188 134.122,283.337 134.270 M274.400 143.800 C 273.428 144.790,272.723 145.600,272.833 145.600 C 272.943 145.600,273.828 144.790,274.800 143.800 C 275.772 142.810,276.477 142.000,276.367 142.000 C 276.257 142.000,275.372 142.810,274.400 143.800 M264.181 154.100 L 262.600 155.800 264.300 154.219 C 265.881 152.748,266.184 152.400,265.881 152.400 C 265.816 152.400,265.051 153.165,264.181 154.100 M284.800 157.890 C 304.881 158.168,321.200 158.172,321.200 157.900 C 321.200 157.735,311.255 157.641,299.100 157.691 C 286.945 157.741,280.510 157.831,284.800 157.890 M253.781 164.500 L 252.200 166.200 253.900 164.619 C 255.481 163.148,255.784 162.800,255.481 162.800 C 255.416 162.800,254.651 163.565,253.781 164.500 M243.381 174.900 L 241.800 176.600 243.500 175.019 C 245.081 173.548,245.384 173.200,245.081 173.200 C 245.016 173.200,244.251 173.965,243.381 174.900 M234.175 184.100 L 233.000 185.400 234.300 184.225 C 235.015 183.579,235.600 182.994,235.600 182.925 C 235.600 182.616,235.270 182.888,234.175 184.100 M352.189 244.200 C 352.189 259.380,352.239 265.532,352.300 257.871 C 352.361 250.210,352.361 237.790,352.300 230.271 C 352.239 222.752,352.189 229.020,352.189 244.200 M361.370 225.200 C 361.370 229.930,361.428 231.865,361.498 229.500 C 361.569 227.135,361.569 223.265,361.498 220.900 C 361.428 218.535,361.370 220.470,361.370 225.200 M32.987 249.200 C 32.987 261.850,33.038 267.025,33.100 260.700 C 33.162 254.375,33.162 244.025,33.100 237.700 C 33.038 231.375,32.987 236.550,32.987 249.200 M228.000 249.000 C 227.890 261.540,227.845 271.875,227.900 271.967 C 228.329 272.682,228.394 268.987,228.303 248.963 L 228.200 226.200 228.000 249.000 M57.780 243.000 C 57.780 250.480,57.834 253.483,57.899 249.674 C 57.965 245.865,57.965 239.745,57.899 236.074 C 57.833 232.403,57.779 235.520,57.780 243.000 M87.386 251.400 C 87.387 263.280,87.438 268.082,87.500 262.072 C 87.562 256.061,87.562 246.341,87.500 240.472 C 87.437 234.602,87.386 239.520,87.386 251.400 M197.232 230.739 C 196.579 231.960,196.714 232.300,197.441 231.263 C 197.793 230.760,197.988 230.254,197.873 230.140 C 197.759 230.025,197.470 230.295,197.232 230.739 M256.426 234.922 L 255.451 236.200 256.726 235.025 C 258.051 233.803,258.203 233.585,257.700 233.622 C 257.535 233.634,256.962 234.219,256.426 234.922 M201.335 240.500 C 200.900 241.195,200.804 242.045,201.187 241.808 C 201.508 241.610,202.041 240.000,201.786 240.000 C 201.710 240.000,201.507 240.225,201.335 240.500 M340.294 240.968 C 338.099 242.293,337.911 242.678,340.000 241.571 C 342.242 240.383,342.167 240.434,341.964 240.231 C 341.871 240.138,341.120 240.470,340.294 240.968 M177.259 241.200 C 177.241 241.530,177.490 242.149,177.813 242.576 C 178.325 243.254,178.400 243.266,178.400 242.676 C 178.400 242.304,178.233 242.000,178.029 242.000 C 177.825 242.000,177.576 241.685,177.476 241.300 C 177.348 240.810,177.283 240.780,177.259 241.200 M261.478 243.405 C 261.112 244.172,260.951 244.800,261.119 244.800 C 261.432 244.800,262.484 242.351,262.265 242.131 C 262.198 242.065,261.844 242.638,261.478 243.405 M390.406 242.900 C 390.409 243.175,390.588 243.670,390.802 244.000 C 391.101 244.459,391.173 244.342,391.109 243.500 C 391.028 242.434,390.394 241.893,390.406 242.900 M312.210 245.580 C 311.523 246.909,311.468 247.200,311.902 247.200 C 312.068 247.200,312.401 246.570,312.642 245.800 C 313.178 244.090,313.022 244.010,312.210 245.580 M361.412 245.317 C 361.241 245.712,361.213 246.147,361.351 246.284 C 361.757 246.690,362.084 246.120,361.897 245.331 C 361.732 244.633,361.710 244.632,361.412 245.317 M260.642 246.165 C 260.924 246.900,284.550 247.129,284.999 246.401 C 285.126 246.196,280.203 246.031,273.415 246.012 C 266.923 245.994,261.337 245.874,261.001 245.745 C 260.560 245.576,260.460 245.692,260.642 246.165 M129.794 246.410 C 129.623 246.686,133.518 246.809,141.770 246.788 C 149.177 246.770,154.000 246.608,154.000 246.379 C 154.000 245.842,130.126 245.873,129.794 246.410 M381.778 259.800 C 381.778 266.620,381.832 269.466,381.899 266.125 C 381.966 262.784,381.966 257.204,381.899 253.725 C 381.833 250.246,381.778 252.980,381.778 259.800 M119.071 250.676 C 119.166 254.124,119.600 254.464,119.600 251.090 C 119.600 249.637,119.465 248.364,119.300 248.262 C 119.135 248.160,119.032 249.246,119.071 250.676 M311.200 250.733 C 311.200 252.090,311.365 253.200,311.568 253.200 C 311.996 253.200,311.930 248.996,311.494 248.561 C 311.332 248.399,311.200 249.377,311.200 250.733 M361.377 260.200 C 361.377 266.800,361.432 269.556,361.499 266.325 C 361.566 263.093,361.566 257.693,361.499 254.325 C 361.432 250.956,361.377 253.600,361.377 260.200 M295.720 251.200 C 295.720 252.410,295.795 252.905,295.887 252.300 C 295.978 251.695,295.978 250.705,295.887 250.100 C 295.795 249.495,295.720 249.990,295.720 251.200 M164.509 251.600 C 164.509 252.590,164.587 252.995,164.682 252.500 C 164.778 252.005,164.778 251.195,164.682 250.700 C 164.587 250.205,164.509 250.610,164.509 251.600 M138.327 253.900 C 143.237 253.963,151.157 253.963,155.927 253.900 C 160.697 253.836,156.680 253.784,147.000 253.784 C 137.320 253.784,133.417 253.836,138.327 253.900 M269.100 253.900 C 273.995 253.963,282.005 253.963,286.900 253.900 C 291.795 253.836,287.790 253.784,278.000 253.784 C 268.210 253.784,264.205 253.836,269.100 253.900 M312.207 255.879 C 312.807 257.314,313.200 257.962,313.200 257.516 C 313.200 257.084,311.985 254.400,311.789 254.400 C 311.679 254.400,311.867 255.066,312.207 255.879 M77.742 255.798 C 77.711 256.346,77.846 256.695,78.042 256.574 C 78.475 256.307,78.523 254.800,78.100 254.800 C 77.935 254.800,77.774 255.249,77.742 255.798 M261.260 258.001 C 261.856 259.709,262.412 259.884,261.896 258.201 C 261.659 257.430,261.325 256.800,261.154 256.800 C 260.982 256.800,261.030 257.340,261.260 258.001 M77.017 258.681 C 76.863 259.297,76.437 260.160,76.069 260.600 C 75.410 261.388,75.413 261.389,76.264 260.671 C 77.077 259.984,77.844 258.111,77.468 257.734 C 77.373 257.640,77.170 258.066,77.017 258.681 M293.232 263.142 C 293.214 263.441,292.741 264.046,292.179 264.488 C 291.617 264.930,291.246 265.379,291.353 265.486 C 291.724 265.857,293.695 263.686,293.480 263.144 C 293.298 262.688,293.258 262.688,293.232 263.142 M141.100 265.089 C 141.815 265.178,142.985 265.178,143.700 265.089 C 144.415 265.001,143.830 264.928,142.400 264.928 C 140.970 264.928,140.385 265.001,141.100 265.089 M272.300 265.089 C 273.015 265.178,274.185 265.178,274.900 265.089 C 275.615 265.001,275.030 264.928,273.600 264.928 C 272.170 264.928,271.585 265.001,272.300 265.089 M55.862 270.618 C 55.979 270.921,56.431 271.283,56.867 271.421 C 58.102 271.813,58.067 271.453,56.799 270.726 C 55.915 270.218,55.699 270.193,55.862 270.618 M316.276 272.189 C 316.978 272.516,318.328 272.880,319.276 272.998 L 321.000 273.214 319.000 272.616 C 315.740 271.643,314.776 271.491,316.276 272.189 M70.800 272.654 L 69.000 273.204 70.565 273.017 C 71.426 272.913,72.317 272.643,72.545 272.415 C 72.773 272.187,72.879 272.024,72.780 272.052 C 72.681 272.081,71.790 272.352,70.800 272.654 M110.400 272.179 C 110.400 273.003,112.937 273.630,113.550 272.958 C 114.152 272.296,114.151 272.281,113.529 272.747 C 112.982 273.157,112.630 273.133,111.629 272.615 C 110.953 272.265,110.400 272.069,110.400 272.179 M134.438 272.398 C 134.790 272.603,135.870 272.867,136.838 272.985 C 138.504 273.187,138.481 273.167,136.400 272.616 C 133.799 271.928,133.596 271.905,134.438 272.398 M265.600 272.382 C 265.930 272.605,266.545 272.791,266.967 272.794 C 267.990 272.802,267.671 272.573,266.200 272.244 C 265.324 272.048,265.162 272.085,265.600 272.382 M147.200 272.800 C 145.833 273.088,145.828 273.095,147.000 273.119 C 147.660 273.133,148.560 272.989,149.000 272.800 C 149.962 272.387,149.164 272.387,147.200 272.800 M330.000 272.800 C 329.176 273.064,329.141 273.126,329.800 273.154 C 330.240 273.173,330.870 273.013,331.200 272.800 C 331.901 272.347,331.414 272.347,330.000 272.800 M65.900 273.482 C 66.395 273.578,67.205 273.578,67.700 273.482 C 68.195 273.387,67.790 273.309,66.800 273.309 C 65.810 273.309,65.405 273.387,65.900 273.482 M141.700 273.476 C 142.085 273.576,142.715 273.576,143.100 273.476 C 143.485 273.375,143.170 273.293,142.400 273.293 C 141.630 273.293,141.315 273.375,141.700 273.476 M56.100 277.059 C 55.385 277.412,54.800 277.885,54.800 278.112 C 54.800 278.339,55.115 278.250,55.500 277.914 C 55.885 277.579,56.740 277.115,57.400 276.884 C 58.060 276.652,58.330 276.453,58.000 276.441 C 57.670 276.428,56.815 276.707,56.100 277.059 M59.600 278.200 C 59.874 278.530,60.278 278.800,60.498 278.800 C 60.721 278.800,60.678 278.535,60.400 278.200 C 60.126 277.870,59.722 277.600,59.502 277.600 C 59.279 277.600,59.322 277.865,59.600 278.200 " stroke="none" fill="#fcac4d" fill-rule="evenodd"></path></g></svg>